<svg xmlns="http://www.w3.org/2000/svg" width="20.813" height="29.25" viewBox="0 0 20.813 29.25">
  <path id="Icon_ionic-ios-calculator" data-name="Icon ionic-ios-calculator" d="M26.156,3.375H9.844a2.248,2.248,0,0,0-2.25,2.25v24.75a2.248,2.248,0,0,0,2.25,2.25H26.156a2.248,2.248,0,0,0,2.25-2.25V5.625A2.248,2.248,0,0,0,26.156,3.375ZM25.313,22.5v5.625a1.683,1.683,0,0,1-1.687,1.688h0a1.683,1.683,0,0,1-1.687-1.687V22.5a1.683,1.683,0,0,1,1.688-1.687h0A1.683,1.683,0,0,1,25.313,22.5Zm0-5.625h0a1.683,1.683,0,0,1-1.687,1.688h0a1.683,1.683,0,0,1-1.687-1.687h0a1.683,1.683,0,0,1,1.688-1.687h0A1.683,1.683,0,0,1,25.313,16.875Zm-5.625,11.25h0A1.683,1.683,0,0,1,18,29.813h0a1.683,1.683,0,0,1-1.687-1.687h0A1.683,1.683,0,0,1,18,26.438h0A1.683,1.683,0,0,1,19.688,28.125Zm0-5.625h0A1.683,1.683,0,0,1,18,24.188h0A1.683,1.683,0,0,1,16.313,22.5h0A1.683,1.683,0,0,1,18,20.813h0A1.683,1.683,0,0,1,19.688,22.5Zm0-5.625h0A1.683,1.683,0,0,1,18,18.563h0a1.683,1.683,0,0,1-1.687-1.687h0A1.683,1.683,0,0,1,18,15.188h0A1.683,1.683,0,0,1,19.688,16.875Zm-5.625,11.25h0a1.683,1.683,0,0,1-1.687,1.688h0a1.683,1.683,0,0,1-1.687-1.687h0a1.683,1.683,0,0,1,1.688-1.687h0A1.683,1.683,0,0,1,14.063,28.125Zm0-5.625h0a1.683,1.683,0,0,1-1.687,1.688h0A1.683,1.683,0,0,1,10.688,22.5h0a1.683,1.683,0,0,1,1.688-1.687h0A1.683,1.683,0,0,1,14.063,22.5Zm0-5.625h0a1.683,1.683,0,0,1-1.687,1.688h0a1.683,1.683,0,0,1-1.687-1.687h0a1.683,1.683,0,0,1,1.688-1.687h0A1.683,1.683,0,0,1,14.063,16.875ZM10.688,11.25V7.875A1.128,1.128,0,0,1,11.813,6.75H24.188a1.128,1.128,0,0,1,1.125,1.125V11.25a1.128,1.128,0,0,1-1.125,1.125H11.813A1.128,1.128,0,0,1,10.688,11.25Z" transform="translate(-7.594 -3.375)" fill="#ffdb57"/>
</svg>
