<svg xmlns="http://www.w3.org/2000/svg" width="28.596" height="28" viewBox="0 0 28.596 28">
  <path id="Icon_map-doctor" data-name="Icon map-doctor" d="M25.7,7.869H22.763V4.756A4,4,0,0,0,18.775.72H11.262A4,4,0,0,0,7.273,4.756V7.869H4.339A3.553,3.553,0,0,0,.72,11.406V25.112A3.613,3.613,0,0,0,4.339,28.72H25.7a3.614,3.614,0,0,0,3.62-3.608V11.406A3.554,3.554,0,0,0,25.7,7.869ZM9.656,4.756A1.721,1.721,0,0,1,11.262,3.1h7.513a1.722,1.722,0,0,1,1.6,1.653V7.869H9.656Zm11.915,16.22H17.4v4.17H12.635v-4.17H8.465V16.209h4.17v-4.17H17.4v4.17h4.17v4.766Z" transform="translate(-0.72 -0.72)" fill="#343434"/>
</svg>
