<svg xmlns="http://www.w3.org/2000/svg" width="377.5" height="46.446" viewBox="0 0 377.5 46.446">
  <g id="Group_984" data-name="Group 984" transform="translate(-17 -44.454)">
    <path id="Path_660" data-name="Path 660" d="M953.226,0a2.979,2.979,0,0,1,2.143,1.191q4.59,4.634,9.948,4.632H1147.6q8.878,0,14.693,4.1a12.793,12.793,0,0,1,5.817,10.983V44.593q0,1.855-1.53,1.853a2.983,2.983,0,0,1-2.143-1.191q-4.591-4.63-9.949-4.631H972.2q-8.874,0-14.692-4.1A12.793,12.793,0,0,1,951.7,25.538V1.853Q951.7,0,953.226,0" transform="translate(-852.195 44.454)" fill="#ffdb57"/>
    <g id="Group_938" data-name="Group 938" transform="translate(-20 -2732)">
      <circle id="Ellipse_7" data-name="Ellipse 7" cx="3.5" cy="3.5" r="3.5" transform="translate(37 2796)" fill="#ffdb57"/>
      <line id="Line_41" data-name="Line 41" x2="69" transform="translate(42.5 2799.5)" fill="none" stroke="#ffdb57" stroke-width="1"/>
    </g>
    <g id="Group_939" data-name="Group 939" transform="translate(320 64)">
      <circle id="Ellipse_7-2" data-name="Ellipse 7" cx="3.5" cy="3.5" r="3.5" transform="translate(67.5)" fill="#ffdb57"/>
      <line id="Line_41-2" data-name="Line 41" x1="69" transform="translate(0 3.5)" fill="none" stroke="#ffdb57" stroke-width="1"/>
    </g>
  </g>
</svg>
