<svg xmlns="http://www.w3.org/2000/svg" xmlns:xlink="http://www.w3.org/1999/xlink" width="121.555" height="89.044" viewBox="0 0 121.555 89.044">
  <defs>
    <clipPath id="clip-path">
      <rect id="Rectangle_941" data-name="Rectangle 941" width="94.438" height="20.133" fill="none"/>
    </clipPath>
    <clipPath id="clip-path-2">
      <rect id="Rectangle_957" data-name="Rectangle 957" width="48.234" height="29.465" fill="none"/>
    </clipPath>
    <clipPath id="clip-path-4">
      <rect id="Rectangle_953" data-name="Rectangle 953" width="29.075" height="8.098" fill="none"/>
    </clipPath>
    <clipPath id="clip-path-6">
      <rect id="Rectangle_955" data-name="Rectangle 955" width="18.919" height="18.919" fill="none"/>
    </clipPath>
  </defs>
  <g id="Group_984" data-name="Group 984" transform="translate(-8 -25.961)">
    <g id="Group_931" data-name="Group 931" transform="translate(2 -1697)">
      <g id="Group_732" data-name="Group 732" transform="translate(6 1722.961)">
        <g id="Group_727" data-name="Group 727" transform="translate(0 58.945)" opacity="0.67" style="mix-blend-mode: multiply;isolation: isolate">
          <g id="Group_684" data-name="Group 684">
            <g id="Group_683" data-name="Group 683" clip-path="url(#clip-path)">
              <path id="Path_195" data-name="Path 195" d="M917.74,1289.044c25.14-2.365,51.119-.2,58.027,4.825s-7.873,11.025-33.013,13.39-51.119.2-58.027-4.825,7.873-11.025,33.013-13.39" transform="translate(-883.028 -1288.085)" fill="#a0a0a0"/>
            </g>
          </g>
        </g>
        <path id="Path_265" data-name="Path 265" d="M1198.6,1341.29a.326.326,0,0,1-.244-.207l-2.7-7.312a.325.325,0,1,1,.61-.225l2.7,7.312a.325.325,0,0,1-.367.432" transform="translate(-1131.95 -1266.461)" fill="#664e39"/>
        <path id="Path_266" data-name="Path 266" d="M1183.594,1345.571a.325.325,0,0,1-.243-.207l-2.7-7.312a.325.325,0,1,1,.61-.225l2.7,7.311a.325.325,0,0,1-.192.417.32.32,0,0,1-.174.015" transform="translate(-1119.025 -1270.147)" fill="#664e39"/>
        <path id="Path_267" data-name="Path 267" d="M805.406,1269.28a.325.325,0,0,1,.268-.174l7.777-.5a.325.325,0,0,1,.042.649l-7.777.5a.326.326,0,0,1-.31-.475" transform="translate(-795.805 -1210.706)" fill="#664e39"/>
        <path id="Path_268" data-name="Path 268" d="M805.58,1253.677a.324.324,0,0,1,.267-.174l7.777-.5a.325.325,0,0,1,.042.649l-7.777.5a.325.325,0,0,1-.309-.475" transform="translate(-795.953 -1197.267)" fill="#664e39"/>
        <path id="Path_269" data-name="Path 269" d="M1237.336,1074.631a.325.325,0,0,1,.246-.2l7.667-1.4a.325.325,0,1,1,.116.64l-7.666,1.4a.325.325,0,0,1-.363-.436" transform="translate(-1167.847 -1042.249)" fill="#664e39"/>
        <path id="Path_270" data-name="Path 270" d="M1235.7,1059.113a.325.325,0,0,1,.245-.2l7.667-1.4a.325.325,0,1,1,.117.64l-7.667,1.4a.325.325,0,0,1-.378-.261.319.319,0,0,1,.016-.174" transform="translate(-1166.439 -1028.882)" fill="#664e39"/>
        <path id="Path_271" data-name="Path 271" d="M867.23,1143.447q-.785.411-1.684.773c-16.716,6.775-61.447,1.539-63.42-2.756-.592-1.29.471-2.5,1.625-3.37a12.693,12.693,0,0,1,2.2-1.3A53.079,53.079,0,0,1,804,1113.227c.173-1.274.356-2.268.486-2.911,5.2,2.407,22.391,7.75,33.135,6.149,9.582-1.429,23.826-5.454,29.442-8.229q.436,1.33.749,2.634a38.316,38.316,0,0,1-3.134,25.783c4.529.99,2.548,6.794,2.548,6.794" transform="translate(-792.864 -1072.579)" fill="#987554"/>
        <path id="Path_272" data-name="Path 272" d="M867.218,923.492a17.384,17.384,0,0,0,.726-7.748c-.514-2.654-16.01-11.251-38.3-9.341s-28.389,6.687-28.417,10.932,0,9.235,0,9.235-1.091,7.218,1.033,8.916a7.458,7.458,0,0,0,1.361.751c5.2,2.407,22.391,7.751,33.135,6.149,9.582-1.43,23.826-5.454,29.442-8.229,1.475-.728,2.355-1.37,2.4-1.855.212-2.335-2.016-6.475-1.38-8.809m-4.776-4.671c-2.654,1.486-16.982,9.234-33.541,8.067-12.106-.854-20.742-4.942-23.6-8.53a2.957,2.957,0,0,1,.993-4.472,66.657,66.657,0,0,1,15.4-5.572c9.354-2.018,26.465-.782,35.981,2.759s7.43,6.262,4.777,7.749" transform="translate(-791.995 -898.499)" fill="#987554"/>
        <path id="Path_273" data-name="Path 273" d="M879.781,1108.236c-5.616,2.775-19.86,6.8-29.442,8.229-10.744,1.6-27.931-3.742-33.136-6.149-.13.642-.313,1.636-.486,2.911.116.057.242.116.374.178,5.2,2.407,24.786,9.3,35.529,7.7,9.582-1.429,21.432-7,27.048-9.776.315-.156.6-.307.861-.454q-.315-1.3-.749-2.634" transform="translate(-805.578 -1072.579)" fill="#664e39"/>
        <path id="Path_274" data-name="Path 274" d="M887.419,924.725a5.232,5.232,0,0,1-1.93,1.649c-.318.178-.8.447-1.442.778-4.681,2.437-17.527,8.317-32.1,7.289-12.106-.854-20.742-4.942-23.606-8.53a2.912,2.912,0,0,1-.593-2.336l0-.017a2.971,2.971,0,0,1,1.582-2.12,66.669,66.669,0,0,1,15.395-5.572c9.355-2.018,26.465-.781,35.981,2.759,4.429,1.648,6.345,3.118,6.86,4.37a1.828,1.828,0,0,1-.153,1.728" transform="translate(-815.043 -906.054)" fill="#664e39"/>
        <path id="Path_275" data-name="Path 275" d="M1204.425,1319.94q-.785.411-1.684.773h0s-1-3.707-2.828-4.468-6.467-.913-6.467-.913c5.631-.532,8.434-2.186,8.434-2.186,4.529.99,2.548,6.794,2.548,6.794" transform="translate(-1130.058 -1249.072)" fill="#664e39"/>
        <path id="Path_276" data-name="Path 276" d="M829.157,1316.753s-9.552,1.373-14.26-1.285a12.714,12.714,0,0,1,2.2-1.3s8.122,2.83,12.065,2.584" transform="translate(-804.01 -1249.953)" fill="#664e39"/>
        <path id="Path_277" data-name="Path 277" d="M1150.151,1085.9a.326.326,0,0,1-.169-.6l6.662-4.044a.325.325,0,0,1,.337.556l-6.662,4.045a.329.329,0,0,1-.169.047" transform="translate(-1092.49 -1049.294)" fill="#664e39"/>
        <path id="Path_278" data-name="Path 278" d="M841.129,1169.558a.325.325,0,0,1-.169-.6l6.661-4.044a.325.325,0,1,1,.338.555l-6.662,4.044a.322.322,0,0,1-.168.047" transform="translate(-826.324 -1121.353)" fill="#664e39"/>
        <path id="Path_279" data-name="Path 279" d="M1181.672,1085.9a.326.326,0,0,1-.169-.6l6.662-4.044a.325.325,0,1,1,.337.556l-6.662,4.045a.325.325,0,0,1-.168.047" transform="translate(-1119.64 -1049.294)" fill="#664e39"/>
        <path id="Path_280" data-name="Path 280" d="M867.491,1169.558a.325.325,0,0,1-.169-.6l6.662-4.044a.325.325,0,1,1,.338.555l-6.662,4.044a.321.321,0,0,1-.168.047" transform="translate(-849.031 -1121.353)" fill="#664e39"/>
        <path id="Path_281" data-name="Path 281" d="M822.339,1069.043a.245.245,0,0,1-.127-.454l5.015-3.045a.245.245,0,1,1,.254.418l-5.015,3.045a.241.241,0,0,1-.126.036" transform="translate(-810.209 -1035.777)" fill="#664e39"/>
        <path id="Path_282" data-name="Path 282" d="M833.026,1083.321a.245.245,0,0,1-.127-.454l5.015-3.045a.245.245,0,0,1,.254.419l-5.015,3.045a.247.247,0,0,1-.127.035" transform="translate(-819.414 -1048.075)" fill="#664e39"/>
        <path id="Path_283" data-name="Path 283" d="M844.97,1065.7a.244.244,0,0,1-.209-.117l-3.045-5.015a.245.245,0,1,1,.418-.254l3.045,5.015a.245.245,0,0,1-.082.336.238.238,0,0,1-.126.035" transform="translate(-827.079 -1031.205)" fill="#664e39"/>
        <path id="Path_284" data-name="Path 284" d="M830.691,1076.393a.244.244,0,0,1-.209-.118l-3.045-5.015a.245.245,0,1,1,.418-.254l3.045,5.015a.244.244,0,0,1-.082.336.241.241,0,0,1-.127.036" transform="translate(-814.781 -1040.411)" fill="#664e39"/>
        <path id="Path_285" data-name="Path 285" d="M1180.958,1185.715a.325.325,0,0,1-.169-.6l6.662-4.044a.325.325,0,1,1,.337.555l-6.661,4.045a.324.324,0,0,1-.168.047" transform="translate(-1119.025 -1135.27)" fill="#664e39"/>
        <path id="Path_286" data-name="Path 286" d="M1195.154,1204.683a.325.325,0,0,1-.169-.6l6.662-4.045a.325.325,0,0,1,.337.556l-6.661,4.045a.328.328,0,0,1-.169.047" transform="translate(-1131.253 -1151.606)" fill="#664e39"/>
        <path id="Path_287" data-name="Path 287" d="M1211.021,1181.282a.324.324,0,0,1-.278-.156l-4.045-6.662a.325.325,0,0,1,.556-.338l4.044,6.662a.325.325,0,0,1-.277.494" transform="translate(-1141.436 -1129.197)" fill="#664e39"/>
        <path id="Path_288" data-name="Path 288" d="M1192.054,1195.479a.324.324,0,0,1-.278-.157l-4.045-6.661a.325.325,0,0,1,.556-.338l4.045,6.661a.326.326,0,0,1-.109.447.322.322,0,0,1-.168.047" transform="translate(-1125.099 -1141.425)" fill="#664e39"/>
        <path id="Path_289" data-name="Path 289" d="M872.73,1273.444a.255.255,0,0,1-.133-.472l5.214-3.166a.255.255,0,1,1,.264.435l-5.215,3.166a.247.247,0,0,1-.131.037" transform="translate(-853.603 -1211.711)" fill="#664e39"/>
        <path id="Path_290" data-name="Path 290" d="M883.843,1288.291a.255.255,0,0,1-.132-.473l5.215-3.166a.255.255,0,1,1,.264.435l-5.214,3.166a.258.258,0,0,1-.132.037" transform="translate(-863.175 -1224.498)" fill="#664e39"/>
        <path id="Path_291" data-name="Path 291" d="M896.261,1269.973a.254.254,0,0,1-.218-.122l-3.166-5.215a.254.254,0,0,1,.435-.264l3.166,5.215a.254.254,0,0,1-.217.387" transform="translate(-871.144 -1206.957)" fill="#664e39"/>
        <path id="Path_292" data-name="Path 292" d="M881.415,1281.086a.254.254,0,0,1-.218-.122l-3.166-5.215a.254.254,0,0,1,.435-.264l3.166,5.214a.255.255,0,0,1-.086.35.251.251,0,0,1-.132.037" transform="translate(-858.357 -1216.528)" fill="#664e39"/>
        <path id="Path_293" data-name="Path 293" d="M887.419,869.793l-3.371,2.427c-4.681,2.438-17.527,8.317-32.1,7.289-12.106-.854-20.742-4.942-23.606-8.53a2.912,2.912,0,0,1-.593-2.335l0-.008v-.01c.013-.362.4-10.461,3.656-12.039,3.316-1.606,5.51.268,9.769,0s6.4-3.714,9.614-5.071,12.854,1.055,14.193,2.928,4.957-.268,11.047,0,8.477,9.287,8.477,9.287a5.658,5.658,0,0,1,3.063,4.331,5.526,5.526,0,0,1-.153,1.729" transform="translate(-815.043 -851.121)" fill="#ffe1bc"/>
        <path id="Path_294" data-name="Path 294" d="M876.759,963.671s-4.67.02-5.039,3.419c0,0,3.393.719,5.039-3.419" transform="translate(-852.953 -948.063)" fill="#ffa94b"/>
        <path id="Path_295" data-name="Path 295" d="M1085.736,895.92s-4.2,2.039-3.063,5.264c0,0,3.37-.82,3.063-5.264" transform="translate(-1034.483 -889.707)" fill="#ffa94b"/>
        <path id="Path_296" data-name="Path 296" d="M1003.068,961.646s-2.483,1.2-1.81,3.11c0,0,1.991-.484,1.81-3.11" transform="translate(-964.427 -946.318)" fill="#ffa94b"/>
        <path id="Path_297" data-name="Path 297" d="M1048.714,884.707s-2.482,1.2-1.81,3.11c0,0,1.991-.484,1.81-3.11" transform="translate(-1003.743 -880.05)" fill="#ffa94b"/>
        <path id="Path_298" data-name="Path 298" d="M1165.927,933.874s-2.483,1.2-1.81,3.11c0,0,1.991-.484,1.81-3.11" transform="translate(-1104.701 -922.398)" fill="#ffa94b"/>
        <path id="Path_299" data-name="Path 299" d="M933.181,1010.874s2.979,3.6,5.84,1.725c0,0-1.6-3.078-5.84-1.725" transform="translate(-905.891 -988.423)" fill="#ffa94b"/>
        <path id="Path_300" data-name="Path 300" d="M1066.014,996.616s-4.658.329-4.8,3.746c0,0,3.432.493,4.8-3.746" transform="translate(-1016.166 -976.439)" fill="#ffa94b"/>
        <path id="Path_301" data-name="Path 301" d="M1164.057,977.3s-.637,4.306,2.443,5.124c0,0,1.139-3.025-2.443-5.124" transform="translate(-1104.701 -959.803)" fill="#ffa94b"/>
        <path id="Path_302" data-name="Path 302" d="M951.229,918.151s3.925,1.883,5.617-.819c0,0-2.553-1.983-5.617.819" transform="translate(-921.436 -907.563)" fill="#ffa94b"/>
        <path id="Path_303" data-name="Path 303" d="M966.063,1240.11l-.026-1.387,1.245-1.171c2.1-1.956,3.124-3.077,3.133-4.223-.015-.8-.51-1.424-1.641-1.4a3.549,3.549,0,0,0-2.081.854l-.68-1.631a5.429,5.429,0,0,1,3.193-1.072c2.217-.042,3.463,1.232,3.5,3.011.031,1.644-1.135,2.979-2.528,4.272l-.89.772v.03l3.695-.071.036,1.885Z" transform="translate(-934.169 -1177.523)" fill="#664e39"/>
        <path id="Path_304" data-name="Path 304" d="M1027.432,1283.57a1.327,1.327,0,0,1,1.331-1.429,1.4,1.4,0,1,1-1.331,1.429" transform="translate(-987.07 -1222.367)" fill="#664e39"/>
        <path id="Path_305" data-name="Path 305" d="M1061.354,1231.025l-3.8.073-.182,1.512a4.245,4.245,0,0,1,.633-.042,4.479,4.479,0,0,1,2.592.66,2.79,2.79,0,0,1,1.239,2.435c.035,1.825-1.5,3.469-4.142,3.52a6.24,6.24,0,0,1-2.74-.506l.374-1.727a5.631,5.631,0,0,0,2.226.44c.95-.018,1.952-.49,1.932-1.531-.02-1.01-.831-1.614-2.791-1.575a8.433,8.433,0,0,0-1.326.116l.55-5.155,5.4-.1Z" transform="translate(-1010.775 -1176.715)" fill="#664e39"/>
        <path id="Path_306" data-name="Path 306" d="M1106.488,1204.339a1.593,1.593,0,0,1-1.513,1.808,1.533,1.533,0,0,1-1.553-1.655,1.594,1.594,0,0,1,1.531-1.783,1.488,1.488,0,0,1,1.535,1.63m-2.1.1c.011.584.217,1,.6.994s.543-.389.53-1.016c-.01-.567-.174-1-.578-.995-.386.008-.558.458-.548,1.016m.7,4.044,3.094-5.836.705-.013-3.1,5.836Zm5.464-1.9a1.592,1.592,0,0,1-1.512,1.808,1.543,1.543,0,0,1-1.553-1.655,1.594,1.594,0,0,1,1.53-1.782,1.487,1.487,0,0,1,1.535,1.629m-2.087.1c0,.584.209,1,.587.994s.542-.388.53-1.015c-.011-.567-.166-1-.569-.995s-.558.458-.548,1.016" transform="translate(-1052.523 -1153.886)" fill="#664e39"/>
      </g>
      <g id="Group_724" data-name="Group 724" transform="translate(79.321 1782.539)">
        <g id="Group_723" data-name="Group 723" transform="translate(0)" clip-path="url(#clip-path-2)">
          <g id="Group_722" data-name="Group 722">
            <g id="Group_721" data-name="Group 721" clip-path="url(#clip-path-2)">
              <g id="Group_714" data-name="Group 714" transform="translate(13.92 12.261)" opacity="0.67" style="mix-blend-mode: multiply;isolation: isolate">
                <g id="Group_713" data-name="Group 713" transform="translate(0)">
                  <g id="Group_712" data-name="Group 712" clip-path="url(#clip-path-4)">
                    <path id="Path_316" data-name="Path 316" d="M87.37,161.806c-7.74-.951-15.738-.082-17.865,1.941s2.424,4.435,10.164,5.386,15.738.082,17.865-1.941-2.424-4.435-10.164-5.386" transform="translate(-68.982 -161.42)" fill="#a0a0a0"/>
                  </g>
                </g>
              </g>
              <path id="Path_317" data-name="Path 317" d="M15.105,204.751c-5.859-.469-11.909.19-13.513,1.472s1.846,2.7,7.7,3.172,11.909-.19,13.513-1.472-1.846-2.7-7.7-3.172" transform="translate(24.94 -189.059)" fill="#e8a41c"/>
              <path id="Path_318" data-name="Path 318" d="M15.061,202.659c-5.859-.469-11.909.19-13.513,1.472s1.846,2.7,7.7,3.172,11.909-.19,13.513-1.472-1.846-2.7-7.7-3.172" transform="translate(24.988 -187.126)" fill="#e8a41c"/>
              <path id="Path_319" data-name="Path 319" d="M15.016,200.568c-5.859-.469-11.909.19-13.513,1.472s1.846,2.7,7.7,3.172,11.909-.19,13.513-1.472-1.846-2.7-7.7-3.172" transform="translate(25.036 -185.194)" fill="#e8a41c"/>
              <path id="Path_320" data-name="Path 320" d="M14.972,198.476c-5.859-.469-11.909.19-13.513,1.472s1.846,2.7,7.7,3.172,11.909-.19,13.513-1.472-1.846-2.7-7.7-3.172" transform="translate(25.083 -183.261)" fill="#f5b400"/>
              <path id="Path_321" data-name="Path 321" d="M14.928,196.384c-5.859-.469-11.909.19-13.513,1.472s1.846,2.7,7.7,3.172,11.909-.19,13.513-1.472-1.846-2.7-7.7-3.172" transform="translate(25.131 -181.328)" fill="#f5b400"/>
              <path id="Path_322" data-name="Path 322" d="M14.883,194.292c-5.859-.469-11.909.19-13.513,1.472s1.846,2.7,7.7,3.172,11.909-.19,13.513-1.472-1.846-2.7-7.7-3.172" transform="translate(25.179 -179.395)" fill="#f5b400"/>
              <path id="Path_323" data-name="Path 323" d="M14.839,192.2c-5.859-.469-11.909.19-13.513,1.472s1.846,2.7,7.7,3.172,11.909-.19,13.513-1.472-1.846-2.7-7.7-3.172" transform="translate(25.227 -177.462)" fill="#f5b400"/>
              <path id="Path_324" data-name="Path 324" d="M14.794,190.109c-5.859-.469-11.909.19-13.513,1.472s1.846,2.7,7.7,3.172,11.909-.19,13.513-1.472-1.846-2.7-7.7-3.172" transform="translate(25.275 -175.529)" fill="#f5b400"/>
              <path id="Path_325" data-name="Path 325" d="M14.75,188.017c-5.859-.469-11.909.19-13.513,1.472s1.846,2.7,7.7,3.172,11.909-.19,13.513-1.472-1.846-2.7-7.7-3.172" transform="translate(25.322 -173.596)" fill="#f5b400"/>
              <path id="Path_326" data-name="Path 326" d="M14.705,185.925c-5.859-.469-11.909.19-13.513,1.472s1.846,2.7,7.7,3.172,11.909-.19,13.513-1.472-1.846-2.7-7.7-3.172" transform="translate(25.371 -171.663)" fill="#f5b400"/>
              <path id="Path_327" data-name="Path 327" d="M14.661,183.833c-5.859-.469-11.909.19-13.513,1.472s1.846,2.7,7.7,3.172,11.909-.19,13.513-1.472-1.846-2.7-7.7-3.172" transform="translate(25.418 -169.73)" fill="#f5b400"/>
              <path id="Path_328" data-name="Path 328" d="M14.617,181.742c-5.859-.469-11.909.19-13.513,1.472s1.846,2.7,7.7,3.172,11.909-.19,13.513-1.472-1.846-2.7-7.7-3.172" transform="translate(25.465 -167.798)" fill="#f5b400"/>
              <path id="Path_329" data-name="Path 329" d="M14.572,179.65c-5.859-.469-11.909.19-13.513,1.472s1.846,2.7,7.7,3.172,11.909-.19,13.513-1.472-1.846-2.7-7.7-3.172" transform="translate(25.514 -165.865)" fill="#f5b400"/>
              <path id="Path_330" data-name="Path 330" d="M14.528,177.558c-5.859-.469-11.909.19-13.513,1.472s1.846,2.7,7.7,3.172,11.909-.19,13.513-1.472-1.846-2.7-7.7-3.172" transform="translate(25.561 -163.932)" fill="#f5b400"/>
              <path id="Path_331" data-name="Path 331" d="M14.484,175.466c-5.859-.469-11.909.19-13.513,1.472s1.846,2.7,7.7,3.172,11.909-.19,13.513-1.472-1.846-2.7-7.7-3.172" transform="translate(25.608 -161.999)" fill="#f5b400"/>
              <path id="Path_332" data-name="Path 332" d="M14.439,173.374c-5.859-.469-11.909.19-13.513,1.472s1.846,2.7,7.7,3.172,11.909-.19,13.513-1.472-1.846-2.7-7.7-3.172" transform="translate(25.657 -160.065)" fill="#f5b400"/>
              <path id="Path_333" data-name="Path 333" d="M14.4,171.283c-5.859-.469-11.909.19-13.513,1.472s1.846,2.7,7.7,3.172,11.909-.19,13.513-1.472-1.846-2.7-7.7-3.172" transform="translate(25.704 -158.133)" fill="#f5b400"/>
              <path id="Path_334" data-name="Path 334" d="M14.35,169.191c-5.859-.469-11.909.19-13.513,1.472s1.846,2.7,7.7,3.172,11.909-.19,13.513-1.472-1.846-2.7-7.7-3.172" transform="translate(25.753 -156.2)" fill="#f5b400"/>
              <path id="Path_335" data-name="Path 335" d="M14.306,167.1c-5.859-.469-11.909.19-13.513,1.472s1.846,2.7,7.7,3.172,11.909-.19,13.513-1.472-1.846-2.7-7.7-3.172" transform="translate(25.8 -154.267)" fill="#f5b400"/>
              <path id="Path_336" data-name="Path 336" d="M14.262,165.007c-5.859-.469-11.909.19-13.513,1.472s1.846,2.7,7.7,3.172,11.909-.19,13.513-1.472-1.846-2.7-7.7-3.172" transform="translate(25.848 -152.334)" fill="#f5b400"/>
              <path id="Path_337" data-name="Path 337" d="M14.217,162.915c-5.859-.469-11.909.19-13.513,1.472s1.846,2.7,7.7,3.172,11.909-.19,13.513-1.472-1.846-2.7-7.7-3.172" transform="translate(25.896 -150.401)" fill="#f5b400"/>
              <path id="Path_338" data-name="Path 338" d="M14.173,160.824c-5.859-.469-11.909.19-13.513,1.472s1.846,2.7,7.7,3.172,11.909-.19,13.513-1.472-1.846-2.7-7.7-3.172" transform="translate(25.943 -148.468)" fill="#f5b400"/>
              <path id="Path_339" data-name="Path 339" d="M14.128,158.732c-5.859-.469-11.909.19-13.513,1.472s1.846,2.7,7.7,3.172,11.909-.19,13.513-1.472-1.846-2.7-7.7-3.172" transform="translate(25.991 -146.536)" fill="#f5b400"/>
              <path id="Path_340" data-name="Path 340" d="M14.084,156.64c-5.859-.469-11.909.19-13.513,1.472s1.846,2.7,7.7,3.172,11.909-.19,13.513-1.472-1.846-2.7-7.7-3.172" transform="translate(26.039 -144.602)" fill="#f5b400"/>
              <path id="Path_341" data-name="Path 341" d="M14.039,154.548c-5.859-.469-11.909.19-13.513,1.472s1.846,2.7,7.7,3.172,11.909-.19,13.513-1.472-1.846-2.7-7.7-3.172" transform="translate(26.087 -142.669)" fill="#f5b400"/>
              <path id="Path_342" data-name="Path 342" d="M14,152.456c-5.859-.469-11.909.19-13.513,1.472s1.846,2.7,7.7,3.172,11.909-.19,13.513-1.472-1.846-2.7-7.7-3.172" transform="translate(26.135 -140.736)" fill="#f5b400"/>
              <path id="Path_343" data-name="Path 343" d="M13.951,150.365c-5.859-.469-11.909.19-13.513,1.472s1.846,2.7,7.7,3.172,11.909-.19,13.513-1.472-1.846-2.7-7.7-3.172" transform="translate(26.182 -138.804)" fill="#e8a41c"/>
              <path id="Path_344" data-name="Path 344" d="M13.906,148.273C8.047,147.8,2,148.462.393,149.745s1.846,2.7,7.7,3.172,11.909-.19,13.513-1.472-1.846-2.7-7.7-3.172" transform="translate(26.23 -136.871)" fill="#f5b400"/>
              <path id="Path_345" data-name="Path 345" d="M13.906,148.273C8.047,147.8,2,148.462.393,149.745s1.846,2.7,7.7,3.172,11.909-.19,13.513-1.472-1.846-2.7-7.7-3.172" transform="translate(26.23 -136.871)" fill="#ffde17"/>
              <path id="Path_346" data-name="Path 346" d="M47.768,156.653c-4.344-.348-8.83.141-10.019,1.091s1.368,2,5.712,2.351,8.83-.141,10.019-1.091-1.368-2-5.712-2.351" transform="translate(-8.383 -144.651)" fill="#e8a41c"/>
              <path id="Path_347" data-name="Path 347" d="M50.67,157.372c-4.214-.338-8.566.136-9.719,1.059s1.327,1.944,5.542,2.281,8.566-.136,9.719-1.059-1.327-1.944-5.542-2.281" transform="translate(-11.349 -145.318)" fill="#f5b400"/>
              <path id="Path_348" data-name="Path 348" d="M60.9,168.848l.818.066.005.032c.045.269.837.474,2.291.59l.935.075.546-.436-1.042-.083c-.737-.059-.751-.138-.655-.214s.285-.139,1.022-.08a3.623,3.623,0,0,1,1.666.463,4.654,4.654,0,0,0,.929.385,9.59,9.59,0,0,0,1.873.3,9.292,9.292,0,0,0,3.183-.141l.078-.025.836.067.487-.389-.834-.067-.006-.032c-.048-.268-.836-.47-2.278-.586l-.538-.043-.546.436.645.052c.751.06.77.136.679.208s-.279.132-1.029.072a3.625,3.625,0,0,1-1.666-.463,4.659,4.659,0,0,0-.929-.385,9.589,9.589,0,0,0-1.873-.3,14.818,14.818,0,0,0-2.019-.042,4.908,4.908,0,0,0-1.2.191l-.077.025-.818-.066Z" transform="translate(-30.266 -155.508)" fill="#f19301"/>
              <path id="Path_349" data-name="Path 349" d="M59.463,169.872l.818.065.005.032c.045.269.837.474,2.291.59l.935.075.546-.436-1.042-.083c-.737-.059-.751-.138-.655-.214s.285-.139,1.022-.08a3.624,3.624,0,0,1,1.666.463,4.649,4.649,0,0,0,.929.385,9.584,9.584,0,0,0,1.873.3,9.293,9.293,0,0,0,3.183-.141l.078-.025.836.067.487-.389-.834-.067-.006-.032c-.048-.267-.836-.47-2.279-.585l-.538-.043-.546.436.645.052c.75.06.77.136.679.208s-.279.132-1.029.072a3.625,3.625,0,0,1-1.666-.463,4.648,4.648,0,0,0-.929-.385,9.589,9.589,0,0,0-1.873-.3,14.831,14.831,0,0,0-2.019-.042,4.912,4.912,0,0,0-1.2.191l-.077.025-.818-.065Z" transform="translate(-28.717 -156.454)" fill="#ffde17"/>
              <path id="Path_350" data-name="Path 350" d="M33.033,148.136c-5.859-.469-11.909.19-13.513,1.472s1.846,2.7,7.7,3.172,11.909-.19,13.513-1.472-1.846-2.7-7.7-3.172" transform="translate(5.651 -136.744)" fill="#e8a41c"/>
              <path id="Path_351" data-name="Path 351" d="M32.988,146.044c-5.859-.469-11.909.19-13.513,1.472s1.846,2.7,7.7,3.172,11.909-.19,13.513-1.472-1.846-2.7-7.7-3.172" transform="translate(5.699 -134.811)" fill="#e8a41c"/>
              <path id="Path_352" data-name="Path 352" d="M32.944,143.953c-5.859-.469-11.909.19-13.513,1.472s1.846,2.7,7.7,3.172,11.909-.19,13.513-1.472-1.846-2.7-7.7-3.172" transform="translate(5.746 -132.879)" fill="#e8a41c"/>
              <path id="Path_353" data-name="Path 353" d="M32.9,141.861c-5.859-.469-11.909.19-13.513,1.472s1.846,2.7,7.7,3.172,11.909-.19,13.513-1.472-1.846-2.7-7.7-3.172" transform="translate(5.794 -130.946)" fill="#f5b400"/>
              <path id="Path_354" data-name="Path 354" d="M32.855,139.769c-5.859-.469-11.909.19-13.513,1.472s1.846,2.7,7.7,3.172,11.909-.19,13.513-1.472-1.846-2.7-7.7-3.172" transform="translate(5.842 -129.013)" fill="#f5b400"/>
              <path id="Path_355" data-name="Path 355" d="M32.811,137.677c-5.859-.469-11.909.19-13.513,1.472s1.846,2.7,7.7,3.172,11.909-.19,13.513-1.472-1.846-2.7-7.7-3.172" transform="translate(5.889 -127.08)" fill="#f5b400"/>
              <path id="Path_356" data-name="Path 356" d="M32.767,135.585c-5.859-.469-11.909.19-13.513,1.472s1.846,2.7,7.7,3.172,11.909-.19,13.513-1.472-1.846-2.7-7.7-3.172" transform="translate(5.937 -125.147)" fill="#f5b400"/>
              <path id="Path_357" data-name="Path 357" d="M32.722,133.494c-5.859-.469-11.909.19-13.513,1.472s1.846,2.7,7.7,3.172,11.909-.19,13.513-1.472-1.846-2.7-7.7-3.172" transform="translate(5.985 -123.214)" fill="#f5b400"/>
              <path id="Path_358" data-name="Path 358" d="M32.678,131.4c-5.859-.469-11.909.19-13.513,1.472s1.846,2.7,7.7,3.172,11.909-.19,13.513-1.472-1.846-2.7-7.7-3.172" transform="translate(6.033 -121.281)" fill="#f5b400"/>
              <path id="Path_359" data-name="Path 359" d="M32.633,129.31c-5.859-.469-11.909.19-13.513,1.472s1.846,2.7,7.7,3.172,11.909-.19,13.513-1.472-1.846-2.7-7.7-3.172" transform="translate(6.081 -119.348)" fill="#f5b400"/>
              <path id="Path_360" data-name="Path 360" d="M32.589,127.218c-5.859-.469-11.909.19-13.513,1.472s1.846,2.7,7.7,3.172,11.909-.19,13.513-1.472-1.846-2.7-7.7-3.172" transform="translate(6.128 -117.415)" fill="#f5b400"/>
              <path id="Path_361" data-name="Path 361" d="M32.545,125.126c-5.859-.469-11.909.19-13.513,1.472s1.846,2.7,7.7,3.172,11.909-.19,13.513-1.472-1.846-2.7-7.7-3.172" transform="translate(6.176 -115.483)" fill="#f5b400"/>
              <path id="Path_362" data-name="Path 362" d="M32.5,123.035c-5.859-.469-11.909.19-13.513,1.472s1.846,2.7,7.7,3.172,11.909-.19,13.513-1.472-1.846-2.7-7.7-3.172" transform="translate(6.224 -113.55)" fill="#f5b400"/>
              <path id="Path_363" data-name="Path 363" d="M32.456,120.943c-5.859-.469-11.909.19-13.513,1.472s1.846,2.7,7.7,3.172,11.909-.19,13.513-1.472-1.846-2.7-7.7-3.172" transform="translate(6.271 -111.617)" fill="#f5b400"/>
              <path id="Path_364" data-name="Path 364" d="M32.411,118.851c-5.859-.469-11.909.19-13.513,1.472s1.846,2.7,7.7,3.172,11.909-.19,13.513-1.472-1.846-2.7-7.7-3.172" transform="translate(6.32 -109.684)" fill="#f5b400"/>
              <path id="Path_365" data-name="Path 365" d="M32.367,116.759c-5.859-.469-11.909.19-13.513,1.472s1.846,2.7,7.7,3.172,11.909-.19,13.513-1.472-1.846-2.7-7.7-3.172" transform="translate(6.367 -107.751)" fill="#f5b400"/>
              <path id="Path_366" data-name="Path 366" d="M32.323,114.667c-5.859-.469-11.909.19-13.513,1.472s1.846,2.7,7.7,3.172,11.909-.19,13.513-1.472-1.846-2.7-7.7-3.172" transform="translate(6.415 -105.817)" fill="#f5b400"/>
              <path id="Path_367" data-name="Path 367" d="M32.278,112.576c-5.859-.469-11.909.19-13.513,1.472s1.846,2.7,7.7,3.172,11.909-.19,13.513-1.472-1.846-2.7-7.7-3.172" transform="translate(6.463 -103.886)" fill="#f5b400"/>
              <path id="Path_368" data-name="Path 368" d="M32.234,110.484c-5.859-.469-11.909.19-13.513,1.472s1.846,2.7,7.7,3.172,11.909-.19,13.513-1.472-1.846-2.7-7.7-3.172" transform="translate(6.51 -101.952)" fill="#f5b400"/>
              <path id="Path_369" data-name="Path 369" d="M32.189,108.392c-5.859-.469-11.909.19-13.513,1.472s1.846,2.7,7.7,3.172,11.909-.19,13.513-1.472-1.846-2.7-7.7-3.172" transform="translate(6.559 -100.019)" fill="#f5b400"/>
              <path id="Path_370" data-name="Path 370" d="M32.145,106.3c-5.859-.469-11.909.19-13.513,1.472s1.846,2.7,7.7,3.172,11.909-.19,13.513-1.472-1.846-2.7-7.7-3.172" transform="translate(6.606 -98.086)" fill="#f5b400"/>
              <path id="Path_371" data-name="Path 371" d="M32.1,104.208c-5.859-.469-11.909.19-13.513,1.472s1.846,2.7,7.7,3.172,11.909-.19,13.513-1.472-1.846-2.7-7.7-3.172" transform="translate(6.654 -96.153)" fill="#f5b400"/>
              <path id="Path_372" data-name="Path 372" d="M32.056,102.117c-5.859-.469-11.909.19-13.513,1.472s1.846,2.7,7.7,3.171,11.909-.19,13.513-1.472-1.846-2.7-7.7-3.172" transform="translate(6.702 -94.221)" fill="#f5b400"/>
              <path id="Path_373" data-name="Path 373" d="M32.012,100.025c-5.859-.469-11.909.19-13.513,1.472s1.846,2.7,7.7,3.172,11.909-.19,13.513-1.472-1.846-2.7-7.7-3.172" transform="translate(6.749 -92.288)" fill="#f5b400"/>
              <path id="Path_374" data-name="Path 374" d="M31.967,97.933c-5.859-.469-11.909.19-13.513,1.472s1.846,2.7,7.7,3.172,11.909-.19,13.513-1.472-1.846-2.7-7.7-3.172" transform="translate(6.798 -90.355)" fill="#f5b400"/>
              <path id="Path_375" data-name="Path 375" d="M31.923,95.841c-5.859-.469-11.909.19-13.513,1.472s1.846,2.7,7.7,3.172,11.909-.19,13.513-1.472-1.846-2.7-7.7-3.172" transform="translate(6.845 -88.421)" fill="#f5b400"/>
              <path id="Path_376" data-name="Path 376" d="M31.878,93.75c-5.859-.469-11.909.19-13.513,1.472s1.846,2.7,7.7,3.172,11.909-.19,13.513-1.472-1.846-2.7-7.7-3.172" transform="translate(6.893 -86.489)" fill="#e8a41c"/>
              <path id="Path_377" data-name="Path 377" d="M31.834,91.658c-5.859-.469-11.909.19-13.513,1.472s1.846,2.7,7.7,3.172,11.909-.19,13.513-1.472-1.846-2.7-7.7-3.172" transform="translate(6.941 -84.556)" fill="#f5b400"/>
              <path id="Path_378" data-name="Path 378" d="M31.834,91.658c-5.859-.469-11.909.19-13.513,1.472s1.846,2.7,7.7,3.172,11.909-.19,13.513-1.472-1.846-2.7-7.7-3.172" transform="translate(6.941 -84.556)" fill="#ffde17"/>
              <path id="Path_379" data-name="Path 379" d="M65.7,100.038c-4.344-.348-8.83.141-10.019,1.091s1.368,2,5.712,2.351,8.83-.141,10.019-1.091-1.368-2-5.712-2.351" transform="translate(-27.672 -92.336)" fill="#e8a41c"/>
              <path id="Path_380" data-name="Path 380" d="M68.6,100.757c-4.214-.338-8.566.136-9.719,1.059s1.328,1.944,5.542,2.281,8.566-.136,9.719-1.059-1.327-1.944-5.542-2.281" transform="translate(-30.639 -93.003)" fill="#f5b400"/>
              <g id="Group_717" data-name="Group 717" transform="translate(0 15.378)" opacity="0.67" style="mix-blend-mode: multiply;isolation: isolate">
                <g id="Group_716" data-name="Group 716" transform="translate(0)">
                  <g id="Group_715" data-name="Group 715" clip-path="url(#clip-path-4)">
                    <path id="Path_381" data-name="Path 381" d="M270.636,202.846c-7.74-.951-15.739-.082-17.865,1.941s2.424,4.435,10.164,5.386,15.738.082,17.865-1.941-2.424-4.435-10.164-5.386" transform="translate(-252.248 -202.461)" fill="#a0a0a0"/>
                  </g>
                </g>
              </g>
              <path id="Path_382" data-name="Path 382" d="M263.875,230.434c-5.859-.469-11.909.19-13.513,1.472s1.846,2.7,7.7,3.172,11.909-.19,13.513-1.472-1.846-2.7-7.7-3.172" transform="translate(-242.725 -212.791)" fill="#e8a41c"/>
              <path id="Path_383" data-name="Path 383" d="M263.83,228.343c-5.859-.469-11.909.19-13.513,1.472s1.846,2.7,7.7,3.172,11.909-.19,13.513-1.472-1.846-2.7-7.7-3.172" transform="translate(-242.677 -210.859)" fill="#e8a41c"/>
              <path id="Path_384" data-name="Path 384" d="M263.786,226.251c-5.859-.469-11.909.19-13.513,1.472s1.846,2.7,7.7,3.172,11.909-.19,13.513-1.472-1.846-2.7-7.7-3.172" transform="translate(-242.629 -208.926)" fill="#e8a41c"/>
              <path id="Path_385" data-name="Path 385" d="M263.742,224.159c-5.859-.469-11.909.19-13.513,1.472s1.846,2.7,7.7,3.172,11.909-.19,13.513-1.472-1.846-2.7-7.7-3.172" transform="translate(-242.582 -206.993)" fill="#f5b400"/>
              <path id="Path_386" data-name="Path 386" d="M263.7,222.067c-5.859-.469-11.909.19-13.513,1.472s1.846,2.7,7.7,3.172,11.909-.19,13.513-1.472-1.846-2.7-7.7-3.172" transform="translate(-242.533 -205.06)" fill="#f5b400"/>
              <path id="Path_387" data-name="Path 387" d="M263.653,219.975c-5.859-.469-11.909.19-13.513,1.472s1.846,2.7,7.7,3.172,11.909-.19,13.513-1.472-1.846-2.7-7.7-3.172" transform="translate(-242.486 -203.127)" fill="#f5b400"/>
              <path id="Path_388" data-name="Path 388" d="M263.609,217.884c-5.859-.469-11.909.19-13.513,1.472s1.846,2.7,7.7,3.172,11.909-.19,13.513-1.472-1.846-2.7-7.7-3.172" transform="translate(-242.439 -201.195)" fill="#f5b400"/>
              <path id="Path_389" data-name="Path 389" d="M263.564,215.792c-5.859-.469-11.909.19-13.513,1.472s1.846,2.7,7.7,3.172,11.909-.19,13.513-1.472-1.846-2.7-7.7-3.172" transform="translate(-242.39 -199.262)" fill="#f5b400"/>
              <path id="Path_390" data-name="Path 390" d="M263.52,213.7c-5.859-.469-11.909.19-13.513,1.472s1.846,2.7,7.7,3.172,11.909-.19,13.513-1.472-1.846-2.7-7.7-3.172" transform="translate(-242.343 -197.328)" fill="#f5b400"/>
              <path id="Path_391" data-name="Path 391" d="M263.475,211.608c-5.859-.469-11.909.19-13.513,1.472s1.846,2.7,7.7,3.172,11.909-.19,13.513-1.472-1.846-2.7-7.7-3.172" transform="translate(-242.295 -195.395)" fill="#f5b400"/>
              <path id="Path_392" data-name="Path 392" d="M263.432,209.516c-5.859-.469-11.909.19-13.513,1.472s1.846,2.7,7.7,3.172,11.909-.19,13.513-1.472-1.846-2.7-7.7-3.172" transform="translate(-242.248 -193.462)" fill="#f5b400"/>
              <path id="Path_393" data-name="Path 393" d="M263.387,207.424c-5.859-.469-11.909.19-13.513,1.472s1.846,2.7,7.7,3.172,11.909-.19,13.513-1.472-1.846-2.7-7.7-3.172" transform="translate(-242.2 -191.529)" fill="#f5b400"/>
              <path id="Path_394" data-name="Path 394" d="M263.342,205.333c-5.859-.469-11.909.19-13.513,1.472s1.846,2.7,7.7,3.172,11.909-.19,13.513-1.472-1.846-2.7-7.7-3.172" transform="translate(-242.151 -189.597)" fill="#f5b400"/>
              <path id="Path_395" data-name="Path 395" d="M263.3,203.241c-5.859-.469-11.909.19-13.513,1.472s1.846,2.7,7.7,3.172,11.909-.19,13.513-1.472-1.846-2.7-7.7-3.172" transform="translate(-242.104 -187.664)" fill="#f5b400"/>
              <path id="Path_396" data-name="Path 396" d="M263.253,201.149c-5.859-.469-11.909.19-13.513,1.472s1.846,2.7,7.7,3.172,11.909-.19,13.513-1.472-1.846-2.7-7.7-3.172" transform="translate(-242.056 -185.731)" fill="#f5b400"/>
              <path id="Path_397" data-name="Path 397" d="M263.209,199.057c-5.859-.469-11.909.19-13.513,1.472s1.846,2.7,7.7,3.172,11.909-.19,13.513-1.472-1.846-2.7-7.7-3.172" transform="translate(-242.008 -183.798)" fill="#f5b400"/>
              <path id="Path_398" data-name="Path 398" d="M263.165,196.965c-5.859-.469-11.909.19-13.513,1.472s1.846,2.7,7.7,3.172,11.909-.19,13.513-1.472-1.846-2.7-7.7-3.172" transform="translate(-241.961 -181.865)" fill="#f5b400"/>
              <path id="Path_399" data-name="Path 399" d="M263.121,194.874c-5.859-.469-11.909.19-13.513,1.472s1.846,2.7,7.7,3.172,11.909-.19,13.513-1.472-1.846-2.7-7.7-3.172" transform="translate(-241.913 -179.932)" fill="#f5b400"/>
              <path id="Path_400" data-name="Path 400" d="M263.076,192.782c-5.859-.469-11.909.19-13.513,1.472s1.846,2.7,7.7,3.172,11.909-.19,13.513-1.472-1.846-2.7-7.7-3.172" transform="translate(-241.865 -177.999)" fill="#f5b400"/>
              <path id="Path_401" data-name="Path 401" d="M263.031,190.69c-5.859-.469-11.909.19-13.513,1.472s1.846,2.7,7.7,3.172,11.909-.19,13.513-1.472-1.846-2.7-7.7-3.172" transform="translate(-241.817 -176.066)" fill="#f5b400"/>
              <path id="Path_402" data-name="Path 402" d="M262.987,188.6c-5.859-.469-11.909.19-13.513,1.472s1.846,2.7,7.7,3.172,11.909-.19,13.513-1.472-1.846-2.7-7.7-3.172" transform="translate(-241.77 -174.133)" fill="#f5b400"/>
              <path id="Path_403" data-name="Path 403" d="M262.943,186.507c-5.859-.469-11.909.19-13.513,1.472s1.846,2.7,7.7,3.172,11.909-.19,13.513-1.472-1.846-2.7-7.7-3.172" transform="translate(-241.722 -172.201)" fill="#f5b400"/>
              <path id="Path_404" data-name="Path 404" d="M262.9,184.415c-5.859-.469-11.909.19-13.513,1.472s1.846,2.7,7.7,3.172,11.909-.19,13.513-1.472-1.846-2.7-7.7-3.172" transform="translate(-241.674 -170.268)" fill="#f5b400"/>
              <path id="Path_405" data-name="Path 405" d="M262.854,182.323c-5.859-.469-11.909.19-13.513,1.472s1.846,2.7,7.7,3.172,11.909-.19,13.513-1.472-1.846-2.7-7.7-3.172" transform="translate(-241.626 -168.335)" fill="#f5b400"/>
              <path id="Path_406" data-name="Path 406" d="M262.809,180.231c-5.859-.469-11.909.19-13.513,1.472s1.846,2.7,7.7,3.172,11.909-.19,13.513-1.472-1.846-2.7-7.7-3.172" transform="translate(-241.578 -166.402)" fill="#f5b400"/>
              <path id="Path_407" data-name="Path 407" d="M262.765,178.139c-5.859-.469-11.909.19-13.513,1.472s1.846,2.7,7.7,3.172,11.909-.19,13.513-1.472-1.846-2.7-7.7-3.172" transform="translate(-241.531 -164.468)" fill="#f5b400"/>
              <path id="Path_408" data-name="Path 408" d="M262.72,176.048c-5.859-.469-11.909.19-13.513,1.472s1.846,2.7,7.7,3.172,11.909-.19,13.513-1.472-1.846-2.7-7.7-3.172" transform="translate(-241.482 -162.537)" fill="#e8a41c"/>
              <path id="Path_409" data-name="Path 409" d="M262.676,173.956c-5.859-.469-11.909.19-13.513,1.472s1.846,2.7,7.7,3.172,11.909-.19,13.513-1.472-1.846-2.7-7.7-3.172" transform="translate(-241.435 -160.604)" fill="#f5b400"/>
              <path id="Path_410" data-name="Path 410" d="M262.676,173.956c-5.859-.469-11.909.19-13.513,1.472s1.846,2.7,7.7,3.172,11.909-.19,13.513-1.472-1.846-2.7-7.7-3.172" transform="translate(-241.435 -160.604)" fill="#ffde17"/>
              <path id="Path_411" data-name="Path 411" d="M296.538,182.336c-4.344-.348-8.83.141-10.019,1.091s1.368,2,5.712,2.351,8.83-.141,10.019-1.091-1.368-2-5.712-2.351" transform="translate(-276.048 -168.383)" fill="#e8a41c"/>
              <path id="Path_412" data-name="Path 412" d="M299.44,183.055c-4.214-.338-8.566.136-9.719,1.059s1.327,1.944,5.542,2.281,8.566-.136,9.719-1.059-1.327-1.944-5.542-2.281" transform="translate(-279.014 -169.05)" fill="#f5b400"/>
              <path id="Path_413" data-name="Path 413" d="M309.673,194.532l.818.065.005.032c.045.269.837.474,2.291.59l.935.075.546-.436-1.042-.083c-.737-.059-.751-.138-.655-.214s.285-.139,1.022-.08a3.625,3.625,0,0,1,1.666.463,4.649,4.649,0,0,0,.929.385,9.588,9.588,0,0,0,1.873.3,9.293,9.293,0,0,0,3.183-.141l.078-.025.836.067.487-.389-.833-.067-.006-.032c-.048-.267-.836-.47-2.279-.585l-.538-.043-.546.436.645.052c.751.06.77.136.679.208s-.279.132-1.029.072a3.625,3.625,0,0,1-1.666-.463,4.65,4.65,0,0,0-.929-.385,9.584,9.584,0,0,0-1.873-.3,14.829,14.829,0,0,0-2.019-.042,4.915,4.915,0,0,0-1.2.191l-.077.025-.818-.066Z" transform="translate(-297.931 -179.241)" fill="#f19301"/>
              <path id="Path_414" data-name="Path 414" d="M308.232,195.555l.818.065.005.032c.045.269.837.474,2.291.59l.935.075.546-.436-1.042-.083c-.737-.059-.751-.138-.655-.214s.285-.139,1.022-.08a3.624,3.624,0,0,1,1.666.463,4.647,4.647,0,0,0,.929.385,9.585,9.585,0,0,0,1.873.3,9.293,9.293,0,0,0,3.183-.141l.078-.025.836.067.487-.389-.833-.067-.006-.032c-.048-.267-.836-.47-2.278-.585l-.538-.043-.546.436.645.052c.751.06.77.136.679.208s-.279.132-1.029.072a3.624,3.624,0,0,1-1.666-.463,4.651,4.651,0,0,0-.929-.385,9.584,9.584,0,0,0-1.873-.3,14.828,14.828,0,0,0-2.019-.042,4.91,4.91,0,0,0-1.2.191l-.077.025-.818-.066Z" transform="translate(-296.381 -180.186)" fill="#ffde17"/>
              <path id="Path_415" data-name="Path 415" d="M270.01,171.014c-5.852-.469-11.9.189-13.5,1.47s1.844,2.7,7.7,3.168,11.9-.189,13.5-1.47-1.843-2.7-7.7-3.168" transform="translate(-249.317 -157.885)" fill="#e8a41c"/>
              <path id="Path_416" data-name="Path 416" d="M269.966,168.925c-5.852-.469-11.9.189-13.5,1.47s1.843,2.7,7.7,3.168,11.9-.189,13.5-1.47-1.843-2.7-7.7-3.168" transform="translate(-249.27 -155.955)" fill="#e8a41c"/>
              <path id="Path_417" data-name="Path 417" d="M269.921,166.836c-5.852-.469-11.9.189-13.5,1.47s1.843,2.7,7.7,3.168,11.9-.189,13.5-1.47-1.843-2.7-7.7-3.168" transform="translate(-249.222 -154.025)" fill="#e8a41c"/>
              <path id="Path_418" data-name="Path 418" d="M269.877,164.746c-5.852-.469-11.9.189-13.5,1.47s1.843,2.7,7.7,3.168,11.9-.189,13.5-1.47-1.844-2.7-7.7-3.168" transform="translate(-249.174 -152.093)" fill="#f5b400"/>
              <path id="Path_419" data-name="Path 419" d="M269.832,162.657c-5.852-.469-11.9.189-13.5,1.47s1.843,2.7,7.7,3.168,11.9-.189,13.5-1.47-1.843-2.7-7.7-3.168" transform="translate(-249.126 -150.163)" fill="#f5b400"/>
              <path id="Path_420" data-name="Path 420" d="M269.788,160.568c-5.852-.469-11.9.189-13.5,1.47s1.844,2.7,7.7,3.168,11.9-.189,13.5-1.47-1.843-2.7-7.7-3.168" transform="translate(-249.078 -148.233)" fill="#f5b400"/>
              <path id="Path_421" data-name="Path 421" d="M269.744,158.478c-5.852-.469-11.9.189-13.5,1.47s1.843,2.7,7.7,3.168,11.9-.189,13.5-1.47-1.843-2.7-7.7-3.168" transform="translate(-249.031 -146.302)" fill="#f5b400"/>
              <path id="Path_422" data-name="Path 422" d="M269.7,156.389c-5.852-.469-11.9.189-13.5,1.47s1.843,2.7,7.7,3.168,11.9-.189,13.5-1.47-1.843-2.7-7.7-3.168" transform="translate(-248.983 -144.371)" fill="#f5b400"/>
              <path id="Path_423" data-name="Path 423" d="M269.655,154.3c-5.852-.469-11.9.189-13.5,1.47s1.843,2.7,7.7,3.168,11.9-.189,13.5-1.47-1.843-2.7-7.7-3.168" transform="translate(-248.935 -142.441)" fill="#f5b400"/>
              <path id="Path_424" data-name="Path 424" d="M269.611,152.21c-5.852-.469-11.9.189-13.5,1.47s1.843,2.7,7.7,3.168,11.9-.189,13.5-1.47-1.844-2.7-7.7-3.168" transform="translate(-248.888 -140.509)" fill="#f5b400"/>
              <path id="Path_425" data-name="Path 425" d="M269.567,150.121c-5.852-.469-11.9.189-13.5,1.47s1.844,2.7,7.7,3.168,11.9-.189,13.5-1.47-1.843-2.7-7.7-3.168" transform="translate(-248.841 -138.579)" fill="#f5b400"/>
              <path id="Path_426" data-name="Path 426" d="M269.522,148.032c-5.852-.469-11.9.189-13.5,1.47s1.843,2.7,7.7,3.168,11.9-.189,13.5-1.47-1.843-2.7-7.7-3.168" transform="translate(-248.792 -136.649)" fill="#f5b400"/>
              <path id="Path_427" data-name="Path 427" d="M269.478,145.942c-5.852-.469-11.9.189-13.5,1.47s1.843,2.7,7.7,3.168,11.9-.189,13.5-1.47-1.843-2.7-7.7-3.168" transform="translate(-248.745 -134.718)" fill="#f5b400"/>
              <path id="Path_428" data-name="Path 428" d="M269.433,143.853c-5.852-.469-11.9.189-13.5,1.47s1.844,2.7,7.7,3.168,11.9-.189,13.5-1.47-1.843-2.7-7.7-3.168" transform="translate(-248.696 -132.787)" fill="#f5b400"/>
              <path id="Path_429" data-name="Path 429" d="M269.389,141.764c-5.852-.469-11.9.189-13.5,1.47s1.843,2.7,7.7,3.168,11.9-.189,13.5-1.47-1.844-2.7-7.7-3.168" transform="translate(-248.649 -130.857)" fill="#f5b400"/>
              <path id="Path_430" data-name="Path 430" d="M269.344,139.674c-5.852-.469-11.9.189-13.5,1.47s1.843,2.7,7.7,3.168,11.9-.189,13.5-1.47-1.844-2.7-7.7-3.168" transform="translate(-248.601 -128.926)" fill="#f5b400"/>
              <path id="Path_431" data-name="Path 431" d="M269.3,137.585c-5.852-.469-11.9.189-13.5,1.47s1.844,2.7,7.7,3.168,11.9-.189,13.5-1.47-1.843-2.7-7.7-3.168" transform="translate(-248.554 -126.995)" fill="#f5b400"/>
              <path id="Path_432" data-name="Path 432" d="M269.256,135.5c-5.852-.469-11.9.189-13.5,1.47s1.844,2.7,7.7,3.168,11.9-.189,13.5-1.47-1.843-2.7-7.7-3.168" transform="translate(-248.506 -125.065)" fill="#f5b400"/>
              <path id="Path_433" data-name="Path 433" d="M269.212,133.406c-5.852-.469-11.9.189-13.5,1.47s1.843,2.7,7.7,3.168,11.9-.189,13.5-1.47-1.844-2.7-7.7-3.168" transform="translate(-248.459 -123.134)" fill="#f5b400"/>
              <path id="Path_434" data-name="Path 434" d="M269.167,131.317c-5.852-.469-11.9.189-13.5,1.47s1.843,2.7,7.7,3.168,11.9-.189,13.5-1.47-1.843-2.7-7.7-3.168" transform="translate(-248.41 -121.203)" fill="#f5b400"/>
              <path id="Path_435" data-name="Path 435" d="M269.123,129.228c-5.852-.469-11.9.189-13.5,1.47s1.843,2.7,7.7,3.168,11.9-.189,13.5-1.47-1.843-2.7-7.7-3.168" transform="translate(-248.363 -119.273)" fill="#f5b400"/>
              <path id="Path_436" data-name="Path 436" d="M269.079,127.138c-5.852-.469-11.9.189-13.5,1.47s1.843,2.7,7.7,3.168,11.9-.189,13.5-1.47-1.844-2.7-7.7-3.168" transform="translate(-248.316 -117.342)" fill="#f5b400"/>
              <path id="Path_437" data-name="Path 437" d="M269.034,125.049c-5.852-.469-11.9.189-13.5,1.47s1.843,2.7,7.7,3.168,11.9-.189,13.5-1.47-1.843-2.7-7.7-3.168" transform="translate(-248.267 -115.411)" fill="#f5b400"/>
              <path id="Path_438" data-name="Path 438" d="M268.99,122.96c-5.852-.469-11.9.189-13.5,1.47s1.843,2.7,7.7,3.168,11.9-.189,13.5-1.47-1.843-2.7-7.7-3.168" transform="translate(-248.219 -113.481)" fill="#f5b400"/>
              <path id="Path_439" data-name="Path 439" d="M268.946,120.871c-5.852-.469-11.9.189-13.5,1.47s1.843,2.7,7.7,3.168,11.9-.189,13.5-1.47-1.843-2.7-7.7-3.168" transform="translate(-248.172 -111.551)" fill="#f5b400"/>
              <path id="Path_440" data-name="Path 440" d="M268.9,118.781c-5.852-.469-11.9.189-13.5,1.47s1.843,2.7,7.7,3.168,11.9-.189,13.5-1.47-1.843-2.7-7.7-3.168" transform="translate(-248.124 -109.62)" fill="#f5b400"/>
              <path id="Path_441" data-name="Path 441" d="M268.857,116.692c-5.852-.469-11.9.189-13.5,1.47s1.843,2.7,7.7,3.168,11.9-.189,13.5-1.47-1.844-2.7-7.7-3.168" transform="translate(-248.077 -107.689)" fill="#e8a41c"/>
              <path id="Path_442" data-name="Path 442" d="M268.812,114.6c-5.852-.469-11.9.189-13.5,1.47s1.844,2.7,7.7,3.168,11.9-.189,13.5-1.47-1.844-2.7-7.7-3.168" transform="translate(-248.028 -105.759)" fill="#f5b400"/>
              <path id="Path_443" data-name="Path 443" d="M268.812,114.6c-5.852-.469-11.9.189-13.5,1.47s1.844,2.7,7.7,3.168,11.9-.189,13.5-1.47-1.844-2.7-7.7-3.168" transform="translate(-248.028 -105.759)" fill="#ffde17"/>
              <path id="Path_444" data-name="Path 444" d="M302.634,122.973c-4.339-.348-8.819.141-10.007,1.09s1.367,2,5.706,2.349,8.819-.14,10.007-1.09-1.367-2-5.706-2.349" transform="translate(-282.6 -113.529)" fill="#e8a41c"/>
              <path id="Path_445" data-name="Path 445" d="M305.533,123.69c-4.209-.337-8.556.136-9.708,1.057s1.326,1.941,5.535,2.278,8.556-.136,9.708-1.057-1.326-1.941-5.535-2.278" transform="translate(-285.563 -114.195)" fill="#f5b400"/>
              <path id="Path_446" data-name="Path 446" d="M261.219,113.244c-5.859-.469-11.909.19-13.513,1.472s1.846,2.7,7.7,3.172,11.909-.19,13.513-1.472-1.846-2.7-7.7-3.172" transform="translate(-239.867 -104.503)" fill="#e8a41c"/>
              <path id="Path_447" data-name="Path 447" d="M261.175,111.153c-5.859-.469-11.909.19-13.513,1.472s1.846,2.7,7.7,3.172,11.909-.19,13.513-1.472-1.846-2.7-7.7-3.172" transform="translate(-239.82 -102.57)" fill="#e8a41c"/>
              <path id="Path_448" data-name="Path 448" d="M261.13,109.061c-5.859-.469-11.909.19-13.513,1.472s1.846,2.7,7.7,3.172,11.909-.19,13.513-1.472-1.846-2.7-7.7-3.172" transform="translate(-239.771 -100.637)" fill="#e8a41c"/>
              <path id="Path_449" data-name="Path 449" d="M261.086,106.969c-5.859-.469-11.909.19-13.513,1.472s1.846,2.7,7.7,3.172,11.909-.19,13.513-1.472-1.846-2.7-7.7-3.172" transform="translate(-239.724 -98.704)" fill="#f5b400"/>
              <path id="Path_450" data-name="Path 450" d="M261.041,104.877c-5.859-.469-11.909.19-13.513,1.472s1.846,2.7,7.7,3.172,11.909-.19,13.513-1.472-1.846-2.7-7.7-3.172" transform="translate(-239.676 -96.771)" fill="#f5b400"/>
              <path id="Path_451" data-name="Path 451" d="M261,102.786c-5.859-.469-11.909.19-13.513,1.472s1.846,2.7,7.7,3.172,11.909-.19,13.513-1.472-1.846-2.7-7.7-3.172" transform="translate(-239.628 -94.839)" fill="#f5b400"/>
              <path id="Path_452" data-name="Path 452" d="M260.953,100.694c-5.859-.469-11.909.19-13.513,1.472s1.846,2.7,7.7,3.172,11.909-.19,13.513-1.472-1.846-2.7-7.7-3.172" transform="translate(-239.581 -92.906)" fill="#f5b400"/>
              <path id="Path_453" data-name="Path 453" d="M260.908,98.6c-5.859-.469-11.909.19-13.513,1.472s1.846,2.7,7.7,3.172,11.909-.19,13.513-1.472-1.846-2.7-7.7-3.172" transform="translate(-239.533 -90.973)" fill="#f5b400"/>
              <path id="Path_454" data-name="Path 454" d="M260.864,96.51c-5.859-.469-11.909.19-13.513,1.472s1.846,2.7,7.7,3.172,11.909-.19,13.513-1.472-1.846-2.7-7.7-3.172" transform="translate(-239.485 -89.04)" fill="#f5b400"/>
              <path id="Path_455" data-name="Path 455" d="M260.819,94.418c-5.859-.469-11.909.19-13.513,1.472s1.846,2.7,7.7,3.172,11.909-.19,13.513-1.472-1.846-2.7-7.7-3.172" transform="translate(-239.437 -87.107)" fill="#f5b400"/>
              <path id="Path_456" data-name="Path 456" d="M260.775,92.326c-5.859-.469-11.909.19-13.513,1.472s1.846,2.7,7.7,3.171,11.909-.19,13.513-1.472-1.846-2.7-7.7-3.172" transform="translate(-239.39 -85.173)" fill="#f5b400"/>
              <path id="Path_457" data-name="Path 457" d="M260.731,90.235c-5.859-.469-11.909.19-13.513,1.472s1.846,2.7,7.7,3.172,11.909-.19,13.513-1.472-1.846-2.7-7.7-3.172" transform="translate(-239.342 -83.241)" fill="#f5b400"/>
              <path id="Path_458" data-name="Path 458" d="M260.686,88.143c-5.859-.469-11.909.19-13.513,1.472s1.846,2.7,7.7,3.172,11.909-.19,13.513-1.472-1.846-2.7-7.7-3.172" transform="translate(-239.294 -81.308)" fill="#f5b400"/>
              <path id="Path_459" data-name="Path 459" d="M260.642,86.051c-5.859-.469-11.909.19-13.513,1.472s1.846,2.7,7.7,3.172,11.909-.19,13.513-1.472-1.846-2.7-7.7-3.172" transform="translate(-239.246 -79.375)" fill="#f5b400"/>
              <path id="Path_460" data-name="Path 460" d="M260.6,83.959c-5.859-.469-11.909.19-13.513,1.472s1.846,2.7,7.7,3.172,11.909-.19,13.513-1.472-1.846-2.7-7.7-3.172" transform="translate(-239.198 -77.442)" fill="#f5b400"/>
              <path id="Path_461" data-name="Path 461" d="M260.553,81.868c-5.859-.469-11.909.19-13.513,1.472s1.846,2.7,7.7,3.172,11.909-.19,13.513-1.472-1.846-2.7-7.7-3.172" transform="translate(-239.151 -75.51)" fill="#f5b400"/>
              <path id="Path_462" data-name="Path 462" d="M260.509,79.776c-5.859-.469-11.909.19-13.513,1.472s1.846,2.7,7.7,3.172,11.909-.19,13.513-1.472-1.846-2.7-7.7-3.172" transform="translate(-239.103 -73.577)" fill="#f5b400"/>
              <path id="Path_463" data-name="Path 463" d="M260.464,77.684c-5.859-.469-11.909.19-13.513,1.472s1.846,2.7,7.7,3.172,11.909-.19,13.513-1.472-1.846-2.7-7.7-3.172" transform="translate(-239.055 -71.643)" fill="#f5b400"/>
              <path id="Path_464" data-name="Path 464" d="M260.42,75.592c-5.859-.469-11.909.19-13.513,1.472s1.846,2.7,7.7,3.172,11.909-.19,13.513-1.472-1.846-2.7-7.7-3.172" transform="translate(-239.008 -69.71)" fill="#f5b400"/>
              <path id="Path_465" data-name="Path 465" d="M260.375,73.5c-5.859-.469-11.909.19-13.513,1.472s1.846,2.7,7.7,3.172,11.909-.19,13.513-1.472-1.846-2.7-7.7-3.172" transform="translate(-238.959 -67.777)" fill="#f5b400"/>
              <path id="Path_466" data-name="Path 466" d="M260.331,71.408c-5.859-.469-11.909.19-13.513,1.472s1.846,2.7,7.7,3.171,11.909-.19,13.513-1.472-1.846-2.7-7.7-3.172" transform="translate(-238.912 -65.844)" fill="#f5b400"/>
              <path id="Path_467" data-name="Path 467" d="M260.287,69.317c-5.859-.469-11.909.19-13.513,1.472s1.846,2.7,7.7,3.172,11.909-.19,13.513-1.472-1.846-2.7-7.7-3.172" transform="translate(-238.864 -63.912)" fill="#f5b400"/>
              <path id="Path_468" data-name="Path 468" d="M260.242,67.225c-5.859-.469-11.909.19-13.513,1.472s1.846,2.7,7.7,3.172,11.909-.19,13.513-1.472-1.846-2.7-7.7-3.172" transform="translate(-238.816 -61.979)" fill="#f5b400"/>
              <path id="Path_469" data-name="Path 469" d="M260.2,65.133c-5.859-.469-11.909.19-13.513,1.472s1.846,2.7,7.7,3.172S266.3,69.587,267.9,68.3s-1.846-2.7-7.7-3.172" transform="translate(-238.769 -60.046)" fill="#f5b400"/>
              <path id="Path_470" data-name="Path 470" d="M260.153,63.041c-5.859-.469-11.909.19-13.513,1.472s1.846,2.7,7.7,3.172,11.909-.19,13.513-1.472-1.846-2.7-7.7-3.172" transform="translate(-238.72 -58.113)" fill="#f5b400"/>
              <path id="Path_471" data-name="Path 471" d="M260.109,60.95c-5.859-.469-11.909.19-13.513,1.472s1.846,2.7,7.7,3.172,11.909-.19,13.513-1.472-1.846-2.7-7.7-3.172" transform="translate(-238.673 -56.181)" fill="#f5b400"/>
              <path id="Path_472" data-name="Path 472" d="M260.064,58.858c-5.859-.469-11.909.19-13.513,1.472s1.846,2.7,7.7,3.172,11.909-.19,13.513-1.472-1.846-2.7-7.7-3.172" transform="translate(-238.625 -54.247)" fill="#e8a41c"/>
              <path id="Path_473" data-name="Path 473" d="M260.02,56.766c-5.859-.469-11.909.19-13.513,1.472s1.846,2.7,7.7,3.172,11.909-.19,13.513-1.472-1.846-2.7-7.7-3.172" transform="translate(-238.577 -52.314)" fill="#f5b400"/>
              <path id="Path_474" data-name="Path 474" d="M260.02,56.766c-5.859-.469-11.909.19-13.513,1.472s1.846,2.7,7.7,3.172,11.909-.19,13.513-1.472-1.846-2.7-7.7-3.172" transform="translate(-238.577 -52.314)" fill="#ffde17"/>
              <path id="Path_475" data-name="Path 475" d="M293.882,65.146c-4.344-.348-8.83.141-10.019,1.091s1.368,2,5.712,2.351,8.83-.141,10.019-1.091-1.368-2-5.712-2.351" transform="translate(-273.19 -60.094)" fill="#e8a41c"/>
              <path id="Path_476" data-name="Path 476" d="M296.784,65.865c-4.214-.338-8.566.136-9.719,1.059s1.327,1.944,5.542,2.281,8.566-.136,9.719-1.059S301,66.2,296.784,65.865" transform="translate(-276.156 -60.761)" fill="#f5b400"/>
              <path id="Path_477" data-name="Path 477" d="M307.017,77.342l.818.065.005.032c.045.269.837.474,2.291.59l.935.075.546-.436-1.042-.083c-.737-.059-.751-.138-.655-.214s.285-.139,1.022-.08a3.625,3.625,0,0,1,1.666.463,4.651,4.651,0,0,0,.929.385,9.584,9.584,0,0,0,1.873.3,9.293,9.293,0,0,0,3.183-.141l.078-.025.836.067.487-.389-.834-.067-.006-.032c-.048-.267-.836-.47-2.279-.585l-.538-.043-.546.436.645.052c.751.06.77.136.679.208s-.279.132-1.029.072a3.624,3.624,0,0,1-1.666-.463,4.649,4.649,0,0,0-.929-.385,9.591,9.591,0,0,0-1.873-.3A14.83,14.83,0,0,0,309.6,76.8a4.911,4.911,0,0,0-1.2.191l-.077.025-.818-.066Z" transform="translate(-295.073 -70.952)" fill="#f19301"/>
              <path id="Path_478" data-name="Path 478" d="M305.577,78.365l.818.065.005.032c.045.269.837.474,2.29.59l.935.075.546-.436-1.042-.083c-.737-.059-.751-.138-.655-.214s.285-.139,1.022-.08a3.624,3.624,0,0,1,1.666.463,4.65,4.65,0,0,0,.929.385,9.585,9.585,0,0,0,1.872.3,9.294,9.294,0,0,0,3.184-.141l.078-.025.836.067.487-.389-.834-.067-.006-.032c-.048-.267-.836-.47-2.279-.585l-.538-.043-.546.436.645.052c.75.06.77.136.679.208s-.279.132-1.029.072a3.625,3.625,0,0,1-1.666-.463,4.648,4.648,0,0,0-.929-.385,9.591,9.591,0,0,0-1.873-.3,14.829,14.829,0,0,0-2.018-.042,4.912,4.912,0,0,0-1.2.191l-.077.025-.818-.066Z" transform="translate(-293.524 -71.897)" fill="#ffde17"/>
              <path id="Path_479" data-name="Path 479" d="M279.147,56.629c-5.859-.469-11.909.19-13.513,1.472s1.846,2.7,7.7,3.172,11.909-.19,13.513-1.472-1.846-2.7-7.7-3.172" transform="translate(-259.157 -52.188)" fill="#e8a41c"/>
              <path id="Path_480" data-name="Path 480" d="M279.1,54.538c-5.859-.469-11.909.19-13.513,1.472s1.846,2.7,7.7,3.172,11.909-.19,13.513-1.472-1.846-2.7-7.7-3.172" transform="translate(-259.108 -50.256)" fill="#e8a41c"/>
              <path id="Path_481" data-name="Path 481" d="M279.058,52.446c-5.859-.469-11.909.19-13.513,1.472s1.846,2.7,7.7,3.172,11.909-.19,13.513-1.472-1.846-2.7-7.7-3.172" transform="translate(-259.061 -48.322)" fill="#e8a41c"/>
              <path id="Path_482" data-name="Path 482" d="M279.013,50.354c-5.859-.469-11.909.19-13.513,1.472s1.846,2.7,7.7,3.172,11.909-.19,13.513-1.472-1.846-2.7-7.7-3.172" transform="translate(-259.013 -46.389)" fill="#f5b400"/>
              <path id="Path_483" data-name="Path 483" d="M278.969,48.262c-5.859-.469-11.909.19-13.513,1.472s1.846,2.7,7.7,3.172,11.909-.19,13.513-1.472-1.846-2.7-7.7-3.172" transform="translate(-258.965 -44.456)" fill="#f5b400"/>
              <path id="Path_484" data-name="Path 484" d="M278.925,46.17c-5.859-.469-11.909.19-13.513,1.472s1.846,2.7,7.7,3.172,11.909-.19,13.513-1.472-1.846-2.7-7.7-3.172" transform="translate(-258.918 -42.523)" fill="#f5b400"/>
              <path id="Path_485" data-name="Path 485" d="M278.88,44.078c-5.859-.469-11.909.19-13.513,1.472s1.846,2.7,7.7,3.172,11.909-.19,13.513-1.472-1.846-2.7-7.7-3.172" transform="translate(-258.87 -40.59)" fill="#f5b400"/>
              <path id="Path_486" data-name="Path 486" d="M278.836,41.987c-5.859-.469-11.909.19-13.513,1.472s1.846,2.7,7.7,3.172,11.909-.19,13.513-1.472-1.846-2.7-7.7-3.172" transform="translate(-258.822 -38.658)" fill="#f5b400"/>
              <path id="Path_487" data-name="Path 487" d="M278.792,39.895c-5.859-.469-11.909.19-13.513,1.472s1.846,2.7,7.7,3.172,11.909-.19,13.513-1.472-1.846-2.7-7.7-3.172" transform="translate(-258.775 -36.725)" fill="#f5b400"/>
              <path id="Path_488" data-name="Path 488" d="M278.747,37.8c-5.859-.469-11.909.19-13.513,1.472s1.846,2.7,7.7,3.172,11.909-.19,13.513-1.472-1.846-2.7-7.7-3.172" transform="translate(-258.727 -34.792)" fill="#f5b400"/>
              <path id="Path_489" data-name="Path 489" d="M278.7,35.711c-5.859-.469-11.909.19-13.513,1.472s1.846,2.7,7.7,3.172,11.909-.19,13.513-1.472-1.846-2.7-7.7-3.172" transform="translate(-258.679 -32.859)" fill="#f5b400"/>
              <path id="Path_490" data-name="Path 490" d="M278.659,33.62c-5.859-.469-11.909.19-13.513,1.472s1.846,2.7,7.7,3.172,11.909-.19,13.513-1.472-1.846-2.7-7.7-3.172" transform="translate(-258.631 -30.926)" fill="#f5b400"/>
              <path id="Path_491" data-name="Path 491" d="M278.614,31.528c-5.859-.469-11.909.19-13.513,1.472s1.846,2.7,7.7,3.172,11.909-.19,13.513-1.472-1.846-2.7-7.7-3.172" transform="translate(-258.583 -28.993)" fill="#f5b400"/>
              <path id="Path_492" data-name="Path 492" d="M278.57,29.436c-5.859-.469-11.909.19-13.513,1.472s1.846,2.7,7.7,3.172,11.909-.19,13.513-1.472-1.846-2.7-7.7-3.172" transform="translate(-258.536 -27.061)" fill="#f5b400"/>
              <path id="Path_493" data-name="Path 493" d="M278.525,27.344c-5.859-.469-11.909.19-13.513,1.472s1.846,2.7,7.7,3.172,11.909-.19,13.513-1.472-1.846-2.7-7.7-3.172" transform="translate(-258.488 -25.127)" fill="#f5b400"/>
              <path id="Path_494" data-name="Path 494" d="M278.481,25.252c-5.859-.469-11.909.19-13.513,1.472s1.846,2.7,7.7,3.172,11.909-.19,13.513-1.472-1.846-2.7-7.7-3.172" transform="translate(-258.44 -23.194)" fill="#f5b400"/>
              <path id="Path_495" data-name="Path 495" d="M278.437,23.161c-5.859-.469-11.909.19-13.513,1.472s1.846,2.7,7.7,3.171,11.909-.19,13.513-1.472-1.846-2.7-7.7-3.172" transform="translate(-258.393 -21.262)" fill="#f5b400"/>
              <path id="Path_496" data-name="Path 496" d="M278.392,21.069c-5.859-.469-11.909.19-13.513,1.472s1.846,2.7,7.7,3.172,11.909-.19,13.513-1.472-1.846-2.7-7.7-3.172" transform="translate(-258.345 -19.329)" fill="#f5b400"/>
              <path id="Path_497" data-name="Path 497" d="M278.348,18.977c-5.859-.469-11.909.19-13.513,1.472s1.846,2.7,7.7,3.172,11.909-.19,13.513-1.472-1.846-2.7-7.7-3.172" transform="translate(-258.297 -17.396)" fill="#f5b400"/>
              <path id="Path_498" data-name="Path 498" d="M278.3,16.885c-5.859-.469-11.909.19-13.513,1.472s1.846,2.7,7.7,3.172,11.909-.19,13.513-1.472-1.846-2.7-7.7-3.172" transform="translate(-258.249 -15.462)" fill="#f5b400"/>
              <path id="Path_499" data-name="Path 499" d="M278.259,14.793c-5.859-.469-11.909.19-13.513,1.472s1.846,2.7,7.7,3.172,11.909-.19,13.513-1.472-1.846-2.7-7.7-3.172" transform="translate(-258.201 -13.53)" fill="#f5b400"/>
              <path id="Path_500" data-name="Path 500" d="M278.214,12.7c-5.859-.469-11.909.19-13.513,1.472s1.846,2.7,7.7,3.171,11.909-.19,13.513-1.472-1.846-2.7-7.7-3.172" transform="translate(-258.153 -11.597)" fill="#f5b400"/>
              <path id="Path_501" data-name="Path 501" d="M278.17,10.61c-5.859-.469-11.909.19-13.513,1.472s1.846,2.7,7.7,3.172,11.909-.19,13.513-1.472-1.846-2.7-7.7-3.172" transform="translate(-258.106 -9.664)" fill="#f5b400"/>
              <path id="Path_502" data-name="Path 502" d="M278.126,8.518c-5.859-.469-11.909.19-13.513,1.472s1.846,2.7,7.7,3.172,11.909-.19,13.513-1.472-1.846-2.7-7.7-3.172" transform="translate(-258.058 -7.731)" fill="#f5b400"/>
              <path id="Path_503" data-name="Path 503" d="M278.081,6.426c-5.859-.469-11.909.19-13.513,1.472s1.846,2.7,7.7,3.172,11.909-.19,13.513-1.472-1.846-2.7-7.7-3.172" transform="translate(-258.01 -5.798)" fill="#f5b400"/>
              <path id="Path_504" data-name="Path 504" d="M278.037,4.334c-5.859-.469-11.909.19-13.513,1.472s1.846,2.7,7.7,3.172,11.909-.19,13.513-1.472-1.846-2.7-7.7-3.172" transform="translate(-257.963 -3.865)" fill="#f5b400"/>
              <path id="Path_505" data-name="Path 505" d="M277.992,2.243c-5.859-.469-11.909.19-13.513,1.472s1.846,2.7,7.7,3.172S284.093,6.7,285.7,5.414s-1.846-2.7-7.7-3.172" transform="translate(-257.914 -1.933)" fill="#e8a41c"/>
              <path id="Path_506" data-name="Path 506" d="M277.948.151c-5.859-.469-11.909.19-13.513,1.472s1.846,2.7,7.7,3.172,11.909-.19,13.513-1.472-1.846-2.7-7.7-3.172" transform="translate(-257.867 0.001)" fill="#f5b400"/>
              <path id="Path_507" data-name="Path 507" d="M277.948.151c-5.859-.469-11.909.19-13.513,1.472s1.846,2.7,7.7,3.172,11.909-.19,13.513-1.472-1.846-2.7-7.7-3.172" transform="translate(-257.867 0.001)" fill="#ffde17"/>
              <path id="Path_508" data-name="Path 508" d="M311.81,8.531c-4.344-.348-8.83.141-10.019,1.091s1.368,2,5.712,2.351,8.83-.141,10.019-1.091-1.368-2-5.712-2.351" transform="translate(-292.48 -7.779)" fill="#e8a41c"/>
              <path id="Path_509" data-name="Path 509" d="M314.712,9.25c-4.214-.338-8.566.136-9.719,1.059s1.328,1.944,5.542,2.281,8.566-.136,9.719-1.059-1.327-1.944-5.542-2.281" transform="translate(-295.446 -8.447)" fill="#f5b400"/>
              <g id="Group_720" data-name="Group 720" transform="translate(14.608 10.223)" opacity="0.67" style="mix-blend-mode: multiply;isolation: isolate">
                <g id="Group_719" data-name="Group 719" transform="translate(0)">
                  <g id="Group_718" data-name="Group 718" clip-path="url(#clip-path-6)">
                    <path id="Path_510" data-name="Path 510" d="M193.876,146.17a9.457,9.457,0,1,0,7.1-11.337,9.457,9.457,0,0,0-7.1,11.337" transform="translate(-193.633 -134.59)" fill="#a0a0a0"/>
                  </g>
                </g>
              </g>
              <path id="Path_511" data-name="Path 511" d="M157.758,150.434a9.457,9.457,0,1,0,7.1-11.337,9.457,9.457,0,0,0-7.1,11.337" transform="translate(-140.164 -128.308)" fill="#cc8f12"/>
              <path id="Path_512" data-name="Path 512" d="M142.2,146.854a9.457,9.457,0,1,0,7.1-11.337,9.457,9.457,0,0,0-7.1,11.337" transform="translate(-123.425 -125)" fill="#fed210"/>
              <path id="Path_513" data-name="Path 513" d="M172.1,174.026a7.182,7.182,0,1,0,5.389-8.61,7.182,7.182,0,0,0-5.389,8.61" transform="translate(-151.108 -152.682)" fill="#fabc11"/>
              <path id="Path_514" data-name="Path 514" d="M175.138,179.5c.133-.023.265-.05.4-.08a7.182,7.182,0,0,0-3.221-14c-.132.03-.263.065-.393.1a7.183,7.183,0,0,1,3.216,13.978" transform="translate(-145.933 -152.683)" fill="#cc8f12"/>
            </g>
          </g>
        </g>
      </g>
    </g>
  </g>
</svg>
