<svg id="Group_662" data-name="Group 662" xmlns="http://www.w3.org/2000/svg" xmlns:xlink="http://www.w3.org/1999/xlink" width="310.204" height="165.114" viewBox="0 0 310.204 165.114">
  <defs>
    <clipPath id="clip-path">
      <rect id="Rectangle_897" data-name="Rectangle 897" width="310.204" height="165.114" fill="#fff"/>
    </clipPath>
  </defs>
  <g id="Group_661" data-name="Group 661" transform="translate(0 0)" clip-path="url(#clip-path)">
    <path id="Path_58" data-name="Path 58" d="M36.86,0a1.533,1.533,0,1,0,1.535,1.535A1.534,1.534,0,0,0,36.86,0" transform="translate(108.121 0)" fill="#fff"/>
    <path id="Path_59" data-name="Path 59" d="M1.535,39.848A1.533,1.533,0,1,0,3.07,41.383a1.534,1.534,0,0,0-1.535-1.535" transform="translate(0 121.965)" fill="#fff"/>
    <path id="Path_60" data-name="Path 60" d="M17.458,13.226a1.381,1.381,0,1,1-1.381-1.381,1.379,1.379,0,0,1,1.381,1.381" transform="translate(44.984 36.255)" fill="#fff"/>
    <path id="Path_61" data-name="Path 61" d="M77.793,23.081a2.761,2.761,0,1,0,2.757,2.761,2.762,2.762,0,0,0-2.757-2.761" transform="translate(229.653 70.645)" fill="#fff"/>
    <path id="Path_62" data-name="Path 62" d="M3.064,23.421A1.381,1.381,0,1,0,4.444,24.8a1.379,1.379,0,0,0-1.381-1.381" transform="translate(5.151 71.686)" fill="#fff"/>
    <path id="Path_63" data-name="Path 63" d="M21.29,24.3a2.761,2.761,0,1,0,2.761,2.761A2.762,2.762,0,0,0,21.29,24.3" transform="translate(56.712 74.379)" fill="#fff"/>
    <path id="Path_64" data-name="Path 64" d="M62.908,39.981a1.381,1.381,0,1,0,1.381,1.381,1.379,1.379,0,0,0-1.381-1.381" transform="translate(188.318 122.372)" fill="#fff"/>
    <path id="Path_65" data-name="Path 65" d="M61.908,20.981a1.381,1.381,0,1,0,1.381,1.381,1.379,1.379,0,0,0-1.381-1.381" transform="translate(185.257 64.218)" fill="#fff"/>
    <path id="Path_66" data-name="Path 66" d="M49.908,27.981a1.381,1.381,0,1,0,1.381,1.381,1.38,1.38,0,0,0-1.381-1.381" transform="translate(148.528 85.643)" fill="#fff"/>
    <path id="Path_67" data-name="Path 67" d="M44.746,11.845a2.761,2.761,0,1,0,2.761,2.761,2.762,2.762,0,0,0-2.761-2.761" transform="translate(128.505 36.255)" fill="#fff"/>
    <path id="Path_68" data-name="Path 68" d="M63.122,9.376A1.381,1.381,0,1,0,64.5,10.757a1.379,1.379,0,0,0-1.381-1.381" transform="translate(188.973 28.698)" fill="#fff"/>
    <path id="Path_69" data-name="Path 69" d="M26.783,35.913a1.381,1.381,0,1,0,1.377,1.381,1.377,1.377,0,0,0-1.377-1.381" transform="translate(77.749 109.921)" fill="#fff"/>
    <path id="Path_70" data-name="Path 70" d="M76.413,35.233a1.381,1.381,0,1,0,1.381,1.381,1.38,1.38,0,0,0-1.381-1.381" transform="translate(229.653 107.839)" fill="#fff"/>
    <path id="Path_71" data-name="Path 71" d="M68.067,80.646A37.72,37.72,0,0,0,98.58,65.1,36.728,36.728,0,0,1,55.544,7.2,37.788,37.788,0,0,0,68.067,80.646" transform="translate(66.597 22.035)" fill="#fff"/>
  </g>
</svg>
