<svg id="Layer_1" data-name="Layer 1" xmlns="http://www.w3.org/2000/svg" viewBox="0 0 102.51 98.89"><defs><style>.cls-1{fill:#1f3d7d;}.cls-2{fill:#5689e2;}.cls-3{fill:#fff;}</style></defs><title>icon-popup</title><path class="cls-1" d="M102.51,79.64V97.37A1.52,1.52,0,0,1,101,98.89H65.79a1.54,1.54,0,0,1-1.32-.76l-6.58-11.4a1.5,1.5,0,0,1,.24-1.83,1.35,1.35,0,0,1,.53-.33A8.56,8.56,0,0,0,57,82.8a9.83,9.83,0,0,1-5.71-3.22,9.83,9.83,0,0,1-5.71,3.22,8.3,8.3,0,0,0-1.7,1.77,1.39,1.39,0,0,1,.54.33,1.53,1.53,0,0,1,.24,1.83L38,98.13a1.51,1.51,0,0,1-1.31.76H1.52A1.52,1.52,0,0,1,0,97.37V79.64a1.53,1.53,0,0,1,.84-1.36l22.8-11.4a1.53,1.53,0,0,1,1.66.2,2.26,2.26,0,0,1,.25.29c6.45-6,7.74-17,8.61-24.55l.23-2a12.49,12.49,0,0,1,1.93-5A9.21,9.21,0,0,0,37.82,32l4-27c.55-3,2.63-4.91,5.31-5a5.56,5.56,0,0,1,4.13,1.67A5.52,5.52,0,0,1,60.7,4.92L64.7,32a9,9,0,0,0,1.49,3.85,12.41,12.41,0,0,1,1.92,4.9l.24,2c.87,7.55,2.16,18.52,8.61,24.55a2.35,2.35,0,0,1,.26-.29,1.52,1.52,0,0,1,1.66-.19l22.79,11.39A1.51,1.51,0,0,1,102.51,79.64Zm-2.26,17.88L101.59,80,80.25,70,78,78.19,68,85.74l-7.78,1.34,6,10.22Zm-28-15.18a12.57,12.57,0,0,0,5-10.9C67.9,65.18,66.35,52,65.33,43.17l-.23-1.94a9.32,9.32,0,0,0-1.5-3.75,12.1,12.1,0,0,1-1.91-5l-4-27.08A2.54,2.54,0,0,0,55.31,3a2.58,2.58,0,0,0-2.53,1.84V76c0,1.85,3.47,3.79,4.4,3.8,1.84,0,4.6,3.49,5.65,5.73A13.63,13.63,0,0,0,72.22,82.34ZM49.74,76V4.88A2.57,2.57,0,0,0,47.2,3c-1.24,0-2.11.92-2.4,2.44l-4,27a12.09,12.09,0,0,1-1.91,5,9.53,9.53,0,0,0-1.51,3.83l-.22,1.86c-1,8.83-2.57,22.06-11.95,28.31a12,12,0,0,0,3.15,9l-3.09-2.33L23.07,70,1.74,80,3.07,97.52l34-.22,6-10.22-7.78-1.34-2-1.55a12.5,12.5,0,0,0,6.44,1.31c1-2.24,3.81-5.73,5.66-5.73C46.27,79.76,49.74,77.82,49.74,76Z"/><path class="cls-1" d="M101.59,80l-1.34,17.55-34-.22-6-10.22L68,85.74l10-7.55L80.25,70ZM99.47,95.85V80.58L80.29,71a15.52,15.52,0,0,1-6.17,13.73,16.5,16.5,0,0,1-11.68,3.81l4.23,7.32Z"/><path class="cls-2" d="M99.47,80.58V95.85H66.67l-4.23-7.32a16.5,16.5,0,0,0,11.68-3.81A15.52,15.52,0,0,0,80.29,71Z"/><path class="cls-1" d="M89.79,22.71a1.52,1.52,0,0,1-.06,3h-.07l-9.76-.4a1.51,1.51,0,0,1-1.45-1.58A1.46,1.46,0,0,1,80,22.32Z"/><path class="cls-1" d="M82.87,13.47A1.53,1.53,0,0,1,83,15.62l-5.07,5.66a1.52,1.52,0,0,1-2.27-2l5.07-5.66A1.52,1.52,0,0,1,82.87,13.47Z"/><path class="cls-3" d="M77.23,71.44a12.57,12.57,0,0,1-5,10.9,13.63,13.63,0,0,1-9.39,3.16c-1-2.24-3.81-5.73-5.65-5.73-.93,0-4.4-2-4.4-3.8V4.88A2.58,2.58,0,0,1,55.31,3,2.54,2.54,0,0,1,57.7,5.42l4,27.08a12.1,12.1,0,0,0,1.91,5,9.32,9.32,0,0,1,1.5,3.75l.23,1.94C66.35,52,67.9,65.18,77.23,71.44Z"/><path class="cls-1" d="M74.33,17.22A1.51,1.51,0,0,1,73.06,19l-.23,0a1.52,1.52,0,0,1-1.5-1.3L69.86,8a1.52,1.52,0,1,1,3-.46Z"/><path class="cls-3" d="M49.74,4.88V76c0,1.85-3.47,3.79-4.4,3.8-1.85,0-4.61,3.49-5.66,5.73a12.5,12.5,0,0,1-6.44-1.31l-4.86-3.67a12,12,0,0,1-3.15-9c9.38-6.25,10.93-19.48,12-28.31l.22-1.86a9.53,9.53,0,0,1,1.51-3.83,12.09,12.09,0,0,0,1.91-5l4-27C45.09,4,46,3.07,47.2,3A2.57,2.57,0,0,1,49.74,4.88Z"/><path class="cls-1" d="M43.07,87.08l-6,10.22-34,.22L1.74,80,23.07,70l2.22,8.22,3.09,2.33a15.24,15.24,0,0,0,4.86,3.67l2,1.55Zm-7.22,8.77,4.23-7.32A16.51,16.51,0,0,1,28.4,84.72,15.5,15.5,0,0,1,22.23,71L3,80.58V95.85Z"/><path class="cls-2" d="M40.08,88.53l-4.23,7.32H3V80.58L22.23,71A15.5,15.5,0,0,0,28.4,84.72,16.51,16.51,0,0,0,40.08,88.53Z"/><path class="cls-2" d="M28.38,80.52l4.86,3.67a15.24,15.24,0,0,1-4.86-3.67Z"/><path class="cls-1" d="M29.17,6.28A1.51,1.51,0,0,1,30.44,8L29,17.67a1.52,1.52,0,0,1-1.5,1.3l-.23,0A1.52,1.52,0,0,1,26,17.21l1.47-9.65A1.53,1.53,0,0,1,29.17,6.28Z"/><path class="cls-1" d="M24.65,19.25a1.52,1.52,0,0,1-2.27,2l-5.07-5.66a1.52,1.52,0,0,1,2.27-2Z"/><path class="cls-1" d="M21.85,23.77a1.51,1.51,0,0,1-1.45,1.58l-9.77.4h-.06a1.52,1.52,0,0,1-.06-3l9.76-.39A1.51,1.51,0,0,1,21.85,23.77Z"/></svg>