<svg id="Group_3949" data-name="Group 3949" xmlns="http://www.w3.org/2000/svg" xmlns:xlink="http://www.w3.org/1999/xlink" width="40.635" height="25.065" viewBox="0 0 40.635 25.065">
  <defs>
    <clipPath id="clip-path">
      <rect id="Rectangle_2299" data-name="Rectangle 2299" width="40.635" height="25.065" fill="none"/>
    </clipPath>
  </defs>
  <g id="Group_3948" data-name="Group 3948" clip-path="url(#clip-path)">
    <path id="Path_12293" data-name="Path 12293" d="M40.635,12.818v.041a.387.387,0,0,0-.045.041,48.888,48.888,0,0,1-4.919,5.233,30.61,30.61,0,0,1-6.564,4.656,19.649,19.649,0,0,1-7.85,2.243,17.776,17.776,0,0,1-5.419-.506,22.561,22.561,0,0,1-7.329-3.4,33.7,33.7,0,0,1-7.427-7.068c-.373-.476-.724-.97-1.081-1.45.056-.076.092-.127.13-.176a48.053,48.053,0,0,1,4.9-5.448,30.113,30.113,0,0,1,5.754-4.339,19.226,19.226,0,0,1,8.18-2.6,17.417,17.417,0,0,1,5.2.406A21.325,21.325,0,0,1,30.52,3.107a34,34,0,0,1,8.9,8.09c.418.529.808,1.08,1.211,1.621M20.307,22.243A9.712,9.712,0,1,0,10.6,12.52a9.713,9.713,0,0,0,9.707,9.723" transform="translate(0 0)" fill="#fff"/>
    <path id="Path_12294" data-name="Path 12294" d="M118.338,59.679a4.019,4.019,0,1,1-4.018,4.01,4.015,4.015,0,0,1,4.018-4.01" transform="translate(-98.02 -51.17)" fill="#fff"/>
  </g>
</svg>
