<svg id="Layer_1" data-name="Layer 1" xmlns="http://www.w3.org/2000/svg" xmlns:xlink="http://www.w3.org/1999/xlink" viewBox="0 0 48 48"><defs><style>.cls-1{fill:#fff;}.cls-2{clip-path:url(#clip-path);}.cls-3{opacity:0.56;}.cls-4{fill:#e7f2ee;}.cls-5{fill:#1f3d7d;}</style><clipPath id="clip-path"><rect class="cls-1" x="-888.43" y="273.33" width="1468.27" height="1170.42"/></clipPath></defs><title>icon-profile</title><rect class="cls-1" x="-888.43" y="273.33" width="1468.27" height="1170.42"/><g class="cls-2"><g class="cls-3"><path class="cls-4" d="M15,39.88c1,13.15.07,27.42-4.2,40.05C21.61,69.71,18.45,52.89,15,39.88Z"/><path class="cls-4" d="M-.28,71.35c6.69-10.76.32-24-5.91-34.28C-2.35,47.74.35,59.49-.28,71.35Z"/><path class="cls-4" d="M22.88,67.06c8.25-11.56,3.8-27-.62-39.35A139.43,139.43,0,0,1,22.88,67.06Z"/><path class="cls-4" d="M63.41,45.19C52.51,51.57,44.43,61.8,36,71,45.44,64.14,57.41,55.54,63.41,45.19Z"/><path class="cls-4" d="M49.52,22.65l0,.2c3.23-7.19,3.52-15.45,1.8-23.27-1.64,7-2.7,15.12-1.92,22.29-2.27,9.56-6.08,21-6.3,30.91C48.65,43.76,49.46,33.08,49.52,22.65Z"/><path class="cls-4" d="M2.77,47.39c.36-10-3.84-20.29-6.19-30.34C-3.46,26.87-2.44,38.33,2.77,47.39Z"/><path class="cls-4" d="M12.08,48.59C12.69,37.81,9.93,26.15,10,14.91,7.61,25.53,7.12,38.15,12.08,48.59Z"/><path class="cls-4" d="M32.73,45.92C36,33.79,29.79,19.73,23,9.2,27.54,20.59,29.54,33.68,32.73,45.92Z"/><path class="cls-4" d="M-8.54-5.18C-4.1,2.43-.31,12.44,4.38,19.94,4.29,10.05-1.52,1.54-8.54-5.18Z"/><path class="cls-4" d="M19.41,23c1.1-10.07-3-19.71-8-28.36C13.84,3.65,15.77,14.4,19.41,23Z"/><path class="cls-4" d="M37.66,23.6c1.45-9-1-17.74-4.71-26.1C33.7,5.84,34.62,15.78,37.66,23.6Z"/><path class="cls-4" d="M29.27-19c4.89,7.47,8.68,17.62,13,25.47C42.55-3.74,36.85-12.43,29.27-19Z"/><path class="cls-4" d="M5.49-20.73C12.12-12.93,19.57-3.52,23.86,6,24.83-6.09,14.67-13.88,5.49-20.73Z"/><path class="cls-4" d="M46.9-17.84a31.8,31.8,0,0,0-1.47-4.1c7.1,7.55,10.8,18.26,13.34,28.64,3.3-11-4-22.35-13.4-28.78a51.94,51.94,0,0,0-6-10H36.09A55.88,55.88,0,0,0,46.9-17.84Z"/></g></g><rect class="cls-4" x="-873.07" y="124.72" width="1439.86" height="191.76"/><path class="cls-5" d="M8.52,37.5a34.56,34.56,0,0,1,7.5-4A22.33,22.33,0,0,1,24,32a22.57,22.57,0,0,1,8,1.41,34.28,34.28,0,0,1,7.53,4A21.06,21.06,0,0,0,43.29,31a21.68,21.68,0,0,0,1.11-7A20,20,0,0,0,24,3.6,20,20,0,0,0,3.6,24a21.16,21.16,0,0,0,1.14,7A21.59,21.59,0,0,0,8.52,37.5ZM24,25.8a8.1,8.1,0,0,1-8.22-8.22A8.1,8.1,0,0,1,24,9.36a8.1,8.1,0,0,1,8.22,8.22A8.1,8.1,0,0,1,24,25.8ZM24,48a23.22,23.22,0,0,1-9.3-1.89A24.18,24.18,0,0,1,1.89,33.3,23.22,23.22,0,0,1,0,24a23.16,23.16,0,0,1,1.89-9.33A24.26,24.26,0,0,1,14.7,1.89,23.22,23.22,0,0,1,24,0a23.16,23.16,0,0,1,9.33,1.89A24.34,24.34,0,0,1,46.11,14.67,23.16,23.16,0,0,1,48,24a23.22,23.22,0,0,1-1.89,9.3A24.26,24.26,0,0,1,33.33,46.11,23.16,23.16,0,0,1,24,48Zm0-3.6a22,22,0,0,0,6.45-1,19.17,19.17,0,0,0,6.21-3.36,26.11,26.11,0,0,0-6.24-3.3,18.65,18.65,0,0,0-12.84,0,26.11,26.11,0,0,0-6.24,3.3,19.17,19.17,0,0,0,6.21,3.36A22,22,0,0,0,24,44.4Zm0-22.2a4.42,4.42,0,0,0,4.62-4.62A4.42,4.42,0,0,0,24,13a4.42,4.42,0,0,0-4.62,4.62A4.42,4.42,0,0,0,24,22.2Z"/></svg>