<svg id="Layer_1" data-name="Layer 1" xmlns="http://www.w3.org/2000/svg" xmlns:xlink="http://www.w3.org/1999/xlink" viewBox="0 0 215.11 92.62"><defs><style>.cls-1{fill:#fff;}.cls-2{clip-path:url(#clip-path);}.cls-3{opacity:0.56;}.cls-4{fill:#e7f2ee;}.cls-5{fill:#1f3d7d;}.cls-6{fill:#ff615e;}</style><clipPath id="clip-path"><rect class="cls-1" x="-827.27" y="364.62" width="1468.27" height="1170.42"/></clipPath></defs><title>logo-jernihberbagi</title><rect class="cls-1" x="-827.27" y="364.62" width="1468.27" height="1170.42"/><g class="cls-2"><g class="cls-3"><path class="cls-4" d="M110.68,113.93a1.36,1.36,0,0,1,0,.2c3.24-7.18,3.53-15.44,1.81-23.27-1.64,7-2.7,15.13-1.92,22.29-2.27,9.56-6.08,21-6.3,30.92C109.81,135.05,110.62,124.36,110.68,113.93Z"/><path class="cls-4" d="M33.09,89.71c9.81,5.8,16.53,16.06,21.72,26.53C55.68,103.92,44.58,93.63,33.09,89.71Z"/><path class="cls-4" d="M52.62,86.1c4.44,7.61,8.23,17.62,12.91,25.12C65.45,101.33,59.63,92.83,52.62,86.1Z"/><path class="cls-4" d="M80.57,114.29c1.1-10.07-3-19.71-8-28.36C75,94.94,76.93,105.68,80.57,114.29Z"/><path class="cls-4" d="M98.82,114.88c1.45-9-1-17.74-4.71-26.1C94.86,97.12,95.78,107.06,98.82,114.88Z"/><path class="cls-4" d="M141.13,83.2c1.3,11.11.08,23.48-.47,35.1C147,108.43,145,94.28,141.13,83.2Z"/><path class="cls-4" d="M131.29,105.56c2-9.24-.67-18.42-4.35-27C127.81,87,128.52,97.42,131.29,105.56Z"/><path class="cls-4" d="M163.81,90.71c-2.65,12.71-7.65,26.15-10.28,39.37C162.09,120,163.55,103.89,163.81,90.71Z"/><path class="cls-4" d="M169.61,79.14c-.23,9.74-1.36,21.4,1.61,30.86C173.87,99.8,171.74,89.31,169.61,79.14Z"/><path class="cls-4" d="M180.91,77.06c2.09,7.89,3.31,17.84,5.35,25.77C188.94,93.92,186,84.77,180.91,77.06Z"/><path class="cls-4" d="M150.93,71.72c-.45,7.78.18,17.2,3.68,24.2C155.7,87.81,154.05,79.4,150.93,71.72Z"/><path class="cls-4" d="M90.43,72.24c4.89,7.47,8.68,17.62,12.95,25.48C103.71,87.55,98,78.85,90.43,72.24Z"/><path class="cls-4" d="M66.65,70.55C73.27,78.35,80.72,87.76,85,97.31,86,85.19,75.83,77.4,66.65,70.55Z"/><path class="cls-4" d="M28.41,77.28c5.41,4.32,12,9.72,17.77,13.59C42.89,83.65,36.23,79.15,28.41,77.28Z"/><path class="cls-4" d="M15.18,97.44C5,90.09-7,85.65-17.86,79.3-9.38,87.08,3.38,96.36,15.18,97.44Z"/><path class="cls-4" d="M4.8,78A50,50,0,0,0,24.51,91.55C19.68,85.49,12.49,81.18,4.8,78Z"/><path class="cls-4" d="M22.71,77.05A65.91,65.91,0,0,0,8.44,62.83,24,24,0,0,0,22.71,77.05Z"/><path class="cls-4" d="M61.14,81.79c-7.86-7.35-17-13.12-24.27-21.12C42,69.75,50.65,79.4,61.14,81.79Z"/><path class="cls-4" d="M68.52,60.27c7,5.46,14.53,12.92,22,17.88C86.14,69.33,77.48,63.93,68.52,60.27Z"/><path class="cls-4" d="M115.93,59.16h-3.66c4.58,6.32,8.79,13.14,13.18,19.55C125,71.51,121.09,64.85,115.93,59.16Z"/><path class="cls-4" d="M127.67,60.45c5.49,7.14,9,16.82,12,25.74C142.2,76.49,135.6,66.57,127.67,60.45Z"/><path class="cls-4" d="M199,70.73c1.25,10.34,1.78,23.14,5.33,33.09C206.15,92.52,202.76,81.38,199,70.73Z"/><path class="cls-4" d="M208.13,61.42c.4,13.42,3.93,31.32,13.36,41.51C217.87,88.79,211.37,75.73,208.13,61.42Z"/><path class="cls-4" d="M188.69,59.16h-2.13a48.66,48.66,0,0,0,1.32,4.93A31.09,31.09,0,0,0,188.69,59.16Z"/><path class="cls-4" d="M215.54,59.16H212.2A20.61,20.61,0,0,0,217,71.39,122.39,122.39,0,0,1,215.54,59.16Z"/><path class="cls-4" d="M204.8,59.16h-2.9a68.32,68.32,0,0,0,1.33,12.1A36,36,0,0,0,204.8,59.16Z"/><path class="cls-4" d="M195.21,59.16h-1.9c-1.15,7.42-1.8,15.31-.17,22.25C195.53,74.21,195.67,66.69,195.21,59.16Z"/><path class="cls-4" d="M156.56,59.16h-1.81c3,6.77,5.84,14.11,8.6,21.06C164.65,72.68,161.25,65.51,156.56,59.16Z"/><path class="cls-4" d="M171.46,59.16h-2c1.93,8,3.79,16.45,7,23.44C177.09,74.4,174.8,66.58,171.46,59.16Z"/><path class="cls-4" d="M182.69,59.16H180c2.16,7.08,4.16,14.46,6.87,20.76C187.5,72.63,185.71,65.67,182.69,59.16Z"/><path class="cls-4" d="M143.05,59.16h-3.74c4,5.45,7.77,11.15,11.38,16.83C150.48,69.68,147.33,64.1,143.05,59.16Z"/><path class="cls-4" d="M127.17,59.16h-.9l.89,1.54C127.19,60.18,127.19,59.67,127.17,59.16Z"/><path class="cls-4" d="M108.05,73.45a31.88,31.88,0,0,0-1.46-4.11c7.1,7.56,10.8,18.27,13.34,28.64,3.3-11-4-22.35-13.4-28.78a51.94,51.94,0,0,0-6-10H97.25A56.12,56.12,0,0,0,108.05,73.45Z"/><path class="cls-4" d="M87.57,59.16H83.36C88.5,64,93.74,69.06,99.21,72.72A41.35,41.35,0,0,0,87.57,59.16Z"/><path class="cls-4" d="M70.26,59.16h-2.5A40.77,40.77,0,0,0,72,61.67C71.47,60.81,70.88,60,70.26,59.16Z"/><path class="cls-4" d="M55.36,59.16H51a36.27,36.27,0,0,0,9.59,6A47.33,47.33,0,0,0,55.36,59.16Z"/><path class="cls-4" d="M8.52,59.16H6.37a20.09,20.09,0,0,0,3.76,2.18Z"/><path class="cls-4" d="M7,76C.76,71.22-5.55,65.79-10.26,59.16h-2.06C-8.85,67.43-2.39,75,7,76Z"/><path class="cls-4" d="M33.38,71.41c-3.94-4.21-8.59-8.19-13.2-12.25h-3.5C21,64.73,26.48,69.59,33.38,71.41Z"/></g></g><path class="cls-5" d="M31.42,39.82a18.24,18.24,0,0,1-10.69-3c-2.85-2-4.24-4.49-4.17-7.51a5.19,5.19,0,0,1,1.9-4,7,7,0,0,1,4.68-1.58,6.45,6.45,0,0,1,4.48,1.61,5,5,0,0,1,1.46,4.58,12.17,12.17,0,0,0,.25,5.19c.42,1.18,1,1.78,1.85,1.78,1.3,0,2-1.29,2-3.85V8.29a2.39,2.39,0,0,0-1.32-1.81,9.11,9.11,0,0,1-1-.58A1.16,1.16,0,0,1,30.4,5a1.35,1.35,0,0,1,.29-.85.9.9,0,0,1,.73-.37H46.53a.94.94,0,0,1,.76.39,1.31,1.31,0,0,1,.32.83,1,1,0,0,1-.44.88c-.39.26-.67.44-.83.53a2.41,2.41,0,0,0-1.27,2.15V29.83a8.41,8.41,0,0,1-3.56,7.31Q37.91,39.77,31.42,39.82Zm18-12.09a10.42,10.42,0,0,1,3.82-8.92,16,16,0,0,1,10.26-3.16,14.65,14.65,0,0,1,8.12,2.07,7.68,7.68,0,0,1,3.73,5.14,4.69,4.69,0,0,1-1.66,4.48,11.77,11.77,0,0,1-5,2.68,22.49,22.49,0,0,1-5.87.78,14.39,14.39,0,0,1-2.24-.14c1.27,3.28,3.39,4.95,6.38,5a6.49,6.49,0,0,0,4-1.22A5.66,5.66,0,0,0,73.05,31c.22-1.07.81-1.56,1.75-1.46s1.27.76,1.07,1.9q-1.8,8.43-13.06,8.43-6.14,0-9.7-3.14T49.41,27.73Zm12.72-9.26c-1.11.23-1.89,1.28-2.36,3.15a14.24,14.24,0,0,0,.12,6.6,10.2,10.2,0,0,0,4-.39,3.15,3.15,0,0,0,2.34-2.24,6.37,6.37,0,0,0-.61-5.14Q64.23,18,62.13,18.47ZM78.51,20a1,1,0,0,1-1-1,1.1,1.1,0,0,1,.63-1.29,16.3,16.3,0,0,1,8.24-2,7.38,7.38,0,0,1,3.71.73c.81.48,1.26,1.51,1.36,3.07a7.6,7.6,0,0,1,6-3.85,11.8,11.8,0,0,1,8,1.43,5.88,5.88,0,0,1,3.07,5.15,4.49,4.49,0,0,1-1.63,3.51,6.06,6.06,0,0,1-4.56,1,4.44,4.44,0,0,1-2.75-1.1,3.25,3.25,0,0,1-1-2.09,23.26,23.26,0,0,1-.08-2.34,4,4,0,0,0-.34-1.9,1.35,1.35,0,0,0-1.43-.71,3,3,0,0,0-2.49,1.46,8.37,8.37,0,0,0-1.32,3,16.09,16.09,0,0,0-.34,3.22v8a2.49,2.49,0,0,0,1.27,2.15c.07,0,.34.21.83.53A1,1,0,0,1,95,38.31a1,1,0,0,1-1,.83H80.07a1.2,1.2,0,0,1-.64-2.1c.2-.13.52-.32,1-.58a2.17,2.17,0,0,0,1.31-2.1V20.86c0-.65-.39-1-1.17-1a9.92,9.92,0,0,0-1,.07A10.09,10.09,0,0,1,78.51,20ZM110,20a1,1,0,0,1-1-1,1.1,1.1,0,0,1,.63-1.29,18,18,0,0,1,9.06-2,7.36,7.36,0,0,1,4.15.85q1.17.86,1.17,3.78a10.31,10.31,0,0,1,3.6-3.37,10,10,0,0,1,4.78-1.31c3.09,0,5.31.53,6.68,1.7s2.05,3.11,2.05,5.8V34.36a2.42,2.42,0,0,0,1.26,2.15c.07,0,.34.21.83.53a1,1,0,0,1,.39,1.27,1,1,0,0,1-1,.83H134.6c-2.85,0-4.32-1.61-4.38-4.83l.05-7.89V24.25a12.9,12.9,0,0,0-.1-1.32,3.39,3.39,0,0,0-.32-1.19,2.32,2.32,0,0,0-.63-.71,1.7,1.7,0,0,0-1.05-.32,3.49,3.49,0,0,0-2.7,1.74,7.45,7.45,0,0,0-1.39,3.68v8.23a2.5,2.5,0,0,0,1.26,2.15c.07,0,.35.21.83.53a1,1,0,0,1,.39,1.27,1,1,0,0,1-1,.83H111.6a1,1,0,0,1-1-.83A1,1,0,0,1,111,37c.19-.13.52-.32,1-.58a2.16,2.16,0,0,0,1.32-2.1V20.86c0-.65-.39-1-1.17-1a10.07,10.07,0,0,0-1,.07A9.75,9.75,0,0,1,110,20Zm35.53.49c-.52,0-.83-.36-.93-1a1.16,1.16,0,0,1,.59-1.32,18.16,18.16,0,0,1,9.16-2.05c2.05,0,3.46.31,4.24.93s1.17,1.95,1.17,4V34.36a2.41,2.41,0,0,0,1.27,2.15c.16.09.44.27.83.53a1.2,1.2,0,0,1-.64,2.1H147.13a1,1,0,0,1-1-.83,1,1,0,0,1,.39-1.27,9.82,9.82,0,0,1,1-.58,2.16,2.16,0,0,0,1.32-2.1v-13c0-.65-.39-1-1.17-1-.23,0-.59,0-1.08.08S145.77,20.52,145.57,20.52ZM164.68,7a1.06,1.06,0,0,1-1-1,1.1,1.1,0,0,1,.64-1.29,14,14,0,0,1,4.11-1.49,23.58,23.58,0,0,1,5-.56q3.12,0,4.26.9c.77.6,1.15,2,1.15,4V20.37A10.46,10.46,0,0,1,182.47,17a9.85,9.85,0,0,1,4.82-1.34q4.64-.06,6.65,1.7c1.35,1.17,2,3.11,2,5.8V33.88H196v.48a2.42,2.42,0,0,0,1.26,2.15c.17.09.44.27.83.53a1.19,1.19,0,0,1-.63,2.1h-8q-2.49,0-3.42-1.32a6.57,6.57,0,0,1-1-3.51l.05-7.89v-.68c0-.85,0-1.48,0-1.91a11.48,11.48,0,0,0-.2-1.51,2,2,0,0,0-.63-1.24,1.91,1.91,0,0,0-1.2-.37,3.58,3.58,0,0,0-2.82,1.93,7.86,7.86,0,0,0-1.32,4v7.75a2.49,2.49,0,0,0,1.27,2.15L181,37a1,1,0,0,1,.39,1.27,1,1,0,0,1-1,.83H166.24a1.2,1.2,0,0,1-.64-2.1c.2-.13.52-.32,1-.58a2.17,2.17,0,0,0,1.31-2.1V7.85c0-.65-.39-1-1.17-1-.22,0-.57,0-1,.08S164.9,7,164.68,7Z"/><path class="cls-6" d="M154.81,0h0a.3.3,0,0,0-.34.14A9.54,9.54,0,0,1,146,4.9a.28.28,0,0,0-.29.22h0a.3.3,0,0,0,.14.34,9.55,9.55,0,0,1,4.74,8.48.3.3,0,0,0,.22.3h0a.3.3,0,0,0,.34-.14,9.56,9.56,0,0,1,8.49-4.74.31.31,0,0,0,.3-.22h0a.29.29,0,0,0-.14-.34A9.55,9.55,0,0,1,155,.31.29.29,0,0,0,154.81,0Z"/><path class="cls-6" d="M208.26,40.77h0a.3.3,0,0,0-.34.14,9.54,9.54,0,0,1-8.49,4.75.28.28,0,0,0-.29.22h0a.29.29,0,0,0,.13.34A9.54,9.54,0,0,1,204,54.7a.3.3,0,0,0,.22.3h0a.3.3,0,0,0,.34-.14,9.55,9.55,0,0,1,8.49-4.74.31.31,0,0,0,.3-.22h0a.3.3,0,0,0-.14-.34,9.55,9.55,0,0,1-4.75-8.49A.29.29,0,0,0,208.26,40.77Z"/><path class="cls-5" d="M1,79.8a1,1,0,0,1-1-.83A1,1,0,0,1,.46,77.7a11.18,11.18,0,0,1,1-.58A2.16,2.16,0,0,0,2.75,75V48.12A2.3,2.3,0,0,0,1.43,46a9.11,9.11,0,0,1-1-.58,1,1,0,0,1-.39-1.22,1,1,0,0,1,1-.83l14.43,0q9.64,0,15,2.07C34,46.83,35.75,49,35.75,51.92q0,5.61-9.41,7.7,6.09,1,9.21,3.29a7.45,7.45,0,0,1,3.12,6.31q0,5.27-5.82,8T16.69,79.85ZM14.69,48.66v8.28A1.46,1.46,0,0,0,15.1,58a1.42,1.42,0,0,0,1,.41q7.65,0,7.65-6A5.5,5.5,0,0,0,22,47.78q-1.83-1.47-5.83-1.51a1.42,1.42,0,0,0-1.07.41,1.54,1.54,0,0,0-.39,1.1Zm0,26.75a1.43,1.43,0,0,0,.41,1.08,1.48,1.48,0,0,0,1,.39c3.64,0,6.31-.64,8-1.9s2.56-3.24,2.56-5.9a6.79,6.79,0,0,0-2.58-5.85c-1.73-1.27-4.39-1.9-8-1.9a1.46,1.46,0,0,0-1,.41,1.53,1.53,0,0,0-.41,1.1ZM41.3,68.49a10.4,10.4,0,0,1,3.83-8.92,16,16,0,0,1,10.26-3.16,14.64,14.64,0,0,1,8.11,2.07,7.68,7.68,0,0,1,3.73,5.14,4.69,4.69,0,0,1-1.66,4.48,11.84,11.84,0,0,1-5,2.68,22.56,22.56,0,0,1-5.88.78,14.48,14.48,0,0,1-2.24-.14q1.9,4.92,6.39,5a6.46,6.46,0,0,0,4-1.22,5.62,5.62,0,0,0,2.12-3.51c.23-1.07.81-1.56,1.75-1.46s1.27.76,1.08,1.9Q66,80.58,54.7,80.58q-6.14,0-9.69-3.14T41.3,68.49ZM54,59.23c-1.1.23-1.89,1.28-2.36,3.15a14.52,14.52,0,0,0,.12,6.6,10.25,10.25,0,0,0,4-.39,3.19,3.19,0,0,0,2.34-2.24,6.41,6.41,0,0,0-.61-5.14Q56.11,58.8,54,59.23ZM70.4,60.79a1.06,1.06,0,0,1-1-1,1.12,1.12,0,0,1,.64-1.29,16.23,16.23,0,0,1,8.23-2,7.38,7.38,0,0,1,3.71.73c.81.48,1.26,1.51,1.36,3.07a7.6,7.6,0,0,1,6-3.85,11.8,11.8,0,0,1,8,1.43A5.88,5.88,0,0,1,100.37,63a4.46,4.46,0,0,1-1.63,3.51,6.06,6.06,0,0,1-4.56,1,4.44,4.44,0,0,1-2.75-1.1,3.3,3.3,0,0,1-1-2.09A23.2,23.2,0,0,1,90.36,62a4.25,4.25,0,0,0-.34-1.9,1.37,1.37,0,0,0-1.44-.71,3,3,0,0,0-2.49,1.46,8.18,8.18,0,0,0-1.31,3,15.41,15.41,0,0,0-.35,3.22v8a2.51,2.51,0,0,0,1.27,2.15c.07,0,.34.21.83.53a1,1,0,0,1,.39,1.27,1,1,0,0,1-1,.83H72a1.2,1.2,0,0,1-.64-2.1c.2-.13.52-.32,1-.58a2.16,2.16,0,0,0,1.32-2.1V61.62c0-.65-.39-1-1.18-1a10.09,10.09,0,0,0-1,.07A9.75,9.75,0,0,1,70.4,60.79Zm30.56-13a1.07,1.07,0,0,1-1-1,1.12,1.12,0,0,1,.64-1.29A14.11,14.11,0,0,1,104.79,44a24.58,24.58,0,0,1,5.14-.56c2.11,0,3.55.29,4.31.88s1.14,1.93,1.14,4v9.07a16.7,16.7,0,0,1,4.1-.93q5.65-.39,9.11,2.93t3.46,9.06q0,5.85-3.24,9t-9.09,3.12l-.24,0-.2,0a10.48,10.48,0,0,1-4.5-1.36,5.46,5.46,0,0,0-3.39-1,21.09,21.09,0,0,0-2.39.66,25.18,25.18,0,0,1-2.9.76,19.32,19.32,0,0,1-3.58.29,1.2,1.2,0,0,1-.64-2.1c.2-.13.52-.32,1-.58a2.16,2.16,0,0,0,1.32-2.1V48.61c0-.65-.39-1-1.18-1-.22,0-.56,0-1,.08S101.19,47.78,101,47.78Zm15.69,11.89a2,2,0,0,0-1.73,2.07,42.68,42.68,0,0,0,.66,7.19,27.85,27.85,0,0,0,1.58,7.24c.61,1.28,1.46,1.83,2.56,1.63s1.67-1,1.78-2.36a33,33,0,0,0-.8-7.39A32.21,32.21,0,0,0,119,61,2.06,2.06,0,0,0,116.65,59.67Zm56.74,16.18q-7.17-2.47-7.17-9.16a8.65,8.65,0,0,1,3.95-7.6q3.95-2.69,10.67-2.68a15,15,0,0,0,5.85-1.71,16.62,16.62,0,0,0,4.19-3.46,1.75,1.75,0,0,1,1.42-.73,2.31,2.31,0,0,1,1.8,1.05,4.7,4.7,0,0,1,1,2.36,4.27,4.27,0,0,1-.46,2.54,3.15,3.15,0,0,1-2.47,1.12,15.1,15.1,0,0,1-3.43,0q6.72,2.39,6.72,9.11a8.57,8.57,0,0,1-3.89,7.65q-3.9,2.59-10.73,2.59c-.62,0-1.44,0-2.48-.1a6.38,6.38,0,0,0-2.54,1.09c-.65.51-.84,1-.58,1.64.16.39.7.58,1.61.58a42,42,0,0,0,5.16-.75,38.06,38.06,0,0,1,6.49-.76q6,0,7.16,4.24a6.52,6.52,0,0,1-1.73,6.75q-2.85,3-9.38,3c-1,0-1.69-.36-2-1.07-.2-.56,0-.9.53-1a.62.62,0,0,1,.25,0c.84,0,1.66-.1,2.44-.2a24.05,24.05,0,0,0,2.48-.46,4.45,4.45,0,0,0,2-.95,1.36,1.36,0,0,0,.39-1.51c-.16-.52-.67-.78-1.51-.78A48.89,48.89,0,0,0,183,87.87a37.78,37.78,0,0,1-9.09,1.24,8,8,0,0,1-5.09-1.73,5.57,5.57,0,0,1-2-4.36Q166.71,77.91,173.39,75.85Zm5.75-17.06a2.07,2.07,0,0,0-1.95,2A22.29,22.29,0,0,0,178,67a25,25,0,0,0,1.9,6.24,2.49,2.49,0,0,0,2.63,1.32,2,2,0,0,0,1.92-2,23.46,23.46,0,0,0-.85-6.29,26.64,26.64,0,0,0-1.87-6.19A2.46,2.46,0,0,0,179.14,58.79Zm19.2,2.49c-.52,0-.83-.36-.93-1A1.16,1.16,0,0,1,198,59a18.16,18.16,0,0,1,9.16-2.05c2.05,0,3.46.31,4.24.93s1.17,2,1.17,4V75.12a2.41,2.41,0,0,0,1.27,2.15c.16.09.44.27.83.53a1.2,1.2,0,0,1-.63,2.1H199.9a1,1,0,0,1-1-.83,1,1,0,0,1,.39-1.27,9.82,9.82,0,0,1,1-.58,2.16,2.16,0,0,0,1.32-2.1v-13c0-.65-.39-1-1.17-1-.23,0-.59,0-1.08.08S198.54,61.28,198.34,61.28ZM155.7,51.73l-.46-.23-5.73-3-5.72,3-.46.23c-1.16.54-7.35,3.78-7.29,10.92V79.57a1,1,0,0,0,1,1h6.75V74c0-2.62,2.42-3.89,2.91-4.12l.55-.28,2.25-1.17,2.23,1.16c.19.1.39.2.6.29.47.23,2.91,1.5,2.89,4.08v6.63H162a1,1,0,0,0,1-1V62.65C163,55.51,156.86,52.27,155.7,51.73Zm-.83,11.58a5.37,5.37,0,1,1-7-7.77.34.34,0,0,1,.46.45,5,5,0,0,0-.38,2.89,5.05,5.05,0,0,0,3.9,4.06,5.15,5.15,0,0,0,2.6-.15A.35.35,0,0,1,154.87,63.31Z"/><path class="cls-6" d="M162.48,80.58h-.63c0-.7.78-1,1.46-1.26.5-.19,1.06-.41,1.06-.67s-.56-.49-1.06-.68c-.68-.26-1.46-.56-1.46-1.26s.78-1,1.46-1.27c.5-.19,1.06-.4,1.06-.67s-.56-.48-1.06-.68c-.68-.26-1.46-.56-1.46-1.26s.78-1,1.46-1.26c.5-.19,1.06-.41,1.06-.68s-.56-.48-1.06-.68c-.68-.26-1.46-.56-1.46-1.26s.78-1,1.46-1.27c.5-.19,1.06-.4,1.06-.67s-.56-.49-1.06-.68c-.68-.27-1.46-.57-1.46-1.27s.78-1,1.46-1.27c.5-.19,1.06-.4,1.06-.67s-.85-.54-1.22-.68c-.74-.3-1.44-.59-1.61-1.08s.21-1.08.65-1.77c.25-.4.72-1.15.6-1.34s-1-.09-1.38,0c-.85.07-1.64.14-2-.28s-.15-1.17.06-2c.12-.45.34-1.29.18-1.44s-1,.11-1.41.24c-.81.24-1.57.47-2,.12s-.35-1.17-.26-2c0-.44.14-1.27,0-1.39s-1,.2-1.46.41c-.77.33-1.45.63-1.88.34s-.52-1.25-.51-2.13a3.24,3.24,0,0,0-.11-1.24c-.42-.26-.62-.1-1.09.41a1.61,1.61,0,0,1-2.82,0c-.47-.51-.67-.66-1.09-.41a3.46,3.46,0,0,0-.11,1.24c0,.88,0,1.78-.5,2.13s-1.1,0-1.88-.35c-.47-.2-1.26-.55-1.46-.41s-.06.95,0,1.4c.09.85.17,1.65-.26,2s-1.19.12-2-.12c-.44-.13-1.27-.38-1.42-.24s.07,1,.19,1.44c.21.8.41,1.55.05,2s-1.15.36-2,.29c-.41,0-1.28-.11-1.39,0s.36.94.61,1.34c.44.69.82,1.29.65,1.77s-.87.77-1.62,1.08c-.36.14-1.22.49-1.21.67s.56.49,1.05.68c.69.26,1.47.56,1.47,1.26s-.78,1-1.47,1.26c-.49.19-1.05.41-1.05.68s.56.48,1.05.67c.69.27,1.47.56,1.47,1.26s-.78,1-1.47,1.27c-.49.19-1.05.41-1.05.67s.56.49,1.05.68c.69.26,1.47.56,1.47,1.27s-.78,1-1.47,1.26c-.49.19-1.05.41-1.05.67s.56.49,1.05.68c.69.27,1.47.57,1.47,1.27s-.78,1-1.47,1.27c-.49.19-1.05.4-1.05.67s.56.49,1.05.68c.69.27,1.47.57,1.47,1.27h-.63c0-.27-.57-.49-1.06-.68-.69-.26-1.46-.56-1.46-1.27s.77-1,1.46-1.26c.49-.19,1.06-.41,1.06-.68s-.57-.49-1.06-.68c-.69-.26-1.46-.56-1.46-1.27s.77-1,1.46-1.26c.49-.19,1.06-.41,1.06-.67s-.57-.49-1.06-.68c-.69-.26-1.46-.56-1.46-1.27s.77-1,1.46-1.26c.49-.19,1.06-.41,1.06-.68s-.57-.48-1.06-.67C134.8,68,134,67.69,134,67s.77-1,1.46-1.27c.49-.19,1.06-.4,1.06-.67s-.56-.48-1.06-.67c-.69-.27-1.46-.56-1.46-1.26s.77-.93,1.6-1.27c.48-.19,1.19-.48,1.27-.7s-.35-.84-.59-1.23c-.48-.76-.94-1.48-.61-2s1.12-.42,2-.34c.52,0,1.31.11,1.47-.07s-.07-.93-.19-1.39c-.23-.85-.44-1.65,0-2s1.2-.16,2,.09c.46.14,1.24.37,1.4.23s.09-1,0-1.46c-.09-.84-.18-1.63.27-2s1.26,0,2.08.33c.4.18,1.14.5,1.28.4s.23-1,.22-1.59c0-.82,0-1.53.41-1.79.91-.54,1.47.08,1.89.53s.57.62.94.62.65-.3,1-.62,1-1.07,1.88-.53c.43.26.42,1,.41,1.79,0,.57,0,1.43.23,1.59s.89-.22,1.28-.39c.82-.36,1.6-.7,2.08-.34s.37,1.13.28,2c-.05.49-.14,1.32,0,1.46s.94-.1,1.4-.24c.84-.25,1.62-.48,2-.08s.21,1.2,0,2c-.13.46-.33,1.23-.19,1.39s1,.1,1.46.06c.86-.07,1.67-.14,2,.34s-.13,1.25-.61,2c-.25.38-.66,1-.59,1.22s.79.51,1.26.7c.83.34,1.62.66,1.61,1.27s-.78,1-1.46,1.26c-.5.19-1.06.41-1.06.68s.56.49,1.06.68c.68.26,1.46.56,1.46,1.27s-.78,1-1.46,1.26c-.5.19-1.06.41-1.06.68s.56.48,1.06.68c.68.26,1.46.56,1.46,1.26s-.78,1-1.46,1.26c-.5.2-1.06.41-1.06.68s.56.49,1.06.68c.68.26,1.46.56,1.46,1.26s-.78,1-1.46,1.26c-.5.19-1.06.41-1.06.68s.56.48,1.06.67c.68.27,1.46.57,1.46,1.27s-.78,1-1.46,1.26C163,80.1,162.48,80.31,162.48,80.58Z"/></svg>