<svg xmlns="http://www.w3.org/2000/svg" xmlns:xlink="http://www.w3.org/1999/xlink" width="37.185" height="25.065" viewBox="0 0 37.185 25.065">
  <defs>
    <clipPath id="clip-path">
      <rect id="Rectangle_2298" data-name="Rectangle 2298" width="37.185" height="25.065" fill="none"/>
    </clipPath>
  </defs>
  <g id="Group_3946" data-name="Group 3946" clip-path="url(#clip-path)">
    <path id="Path_12292" data-name="Path 12292" d="M29.85,25.064H8.862A3.061,3.061,0,0,0,8.511,25a8.2,8.2,0,0,1-3-.784A9.15,9.15,0,0,1,.133,17.109a9.036,9.036,0,0,1,2.38-7.862A9.351,9.351,0,0,1,8.025,6.326a.637.637,0,0,0,.514-.377A11.412,11.412,0,0,1,22.756.786a11.434,11.434,0,0,1,7.221,8.277.444.444,0,0,0,.43.387,7.723,7.723,0,0,1,6.257,5.038,15.241,15.241,0,0,1,.521,1.925V18.1a2.435,2.435,0,0,0-.078.27,7.521,7.521,0,0,1-4.939,6.165,16.116,16.116,0,0,1-2.318.531M15.5,20.307H21.7V14.068h4.511L18.64,6.43l-7.6,7.664H15.5Z" transform="translate(0.001 0.001)" fill="#fff"/>
  </g>
</svg>
