<svg xmlns="http://www.w3.org/2000/svg" width="58.528" height="58.529" viewBox="0 0 58.528 58.529">
  <g id="Group_2682" data-name="Group 2682" transform="translate(978.323 -1917.363)">
    <path id="Path_149703" data-name="Path 149703" d="M1111.623,2078.368a29.263,29.263,0,1,0,20.693,8.571,29.17,29.17,0,0,0-20.693-8.571m18.185,47.45a25.737,25.737,0,0,1-36.371,0,25.88,25.88,0,0,1-7.525-18.186,25.711,25.711,0,1,1,51.421,0,25.88,25.88,0,0,1-7.525,18.186" transform="translate(-2060.682 -161.005)" fill="#fff"/>
    <path id="Path_149704" data-name="Path 149704" d="M1127.3,2104.845c-.07-.07-.07-.07-.14-.138a2.5,2.5,0,0,0-.7-.489l-10.312-5.922a.068.068,0,0,1-.07-.069l-10.382-5.993a3.931,3.931,0,0,0-2.926-.418,4.083,4.083,0,0,0-2.369,1.811,5.225,5.225,0,0,0-.418.906c-.07.209-.07.488-.14.767v24.317a3.807,3.807,0,0,0,3.832,3.832,3.162,3.162,0,0,0,1.115-.209,4.241,4.241,0,0,0,.976-.488l10.242-5.922.14-.07,10.312-5.923c.069,0,.069-.069.139-.069a3.916,3.916,0,0,0,1.672-2.3,3.635,3.635,0,0,0-.418-2.926,7.807,7.807,0,0,1-.557-.7m-2.439,2.857a.15.15,0,0,1-.139.139h-.07l-10.242,5.992-.07.07-10.243,5.923c-.069,0-.069.07-.139.07a.068.068,0,0,0-.07.069h-.069c-.07,0-.14-.069-.209-.069a.256.256,0,0,1-.07-.209v-24.178c.07-.07.139-.139.209-.139h.209l10.312,5.922.07.069,10.382,5.993.069.069.07.07Z" transform="translate(-2060.682 -161.005)" fill="#fff"/>
  </g>
</svg>
