<svg id="Layer_1" data-name="Layer 1" xmlns="http://www.w3.org/2000/svg" xmlns:xlink="http://www.w3.org/1999/xlink" viewBox="0 0 153.88 66.26"><defs><style>.cls-1{fill:#fff;}.cls-2{clip-path:url(#clip-path);}.cls-3{opacity:0.56;}.cls-4{fill:#e7f2ee;}.cls-5{fill:#ff615e;}</style><clipPath id="clip-path"><rect class="cls-1" x="-657.19" y="-1040.28" width="1468.27" height="740.77"/></clipPath></defs><title>logo-jernihberbagi-white</title><rect class="cls-1" x="-657.19" y="-1040.28" width="1468.27" height="740.77"/><g class="cls-2"><g class="cls-3"><path class="cls-4" d="M37.3,6.17C28.63,1.54,18.89.71,9.12.36,17.79,3.2,28.06,6.72,37.3,6.17Z"/><path class="cls-4" d="M70.24,16.56C59.73,12.87,47.39,13,37.39,6.57,45.16,14.74,58.67,18.7,70.24,16.56Z"/><path class="cls-4" d="M20.08,10.52h0C8.67,6-4.78,1.41-17.53,1c11.66,2.84,23.61,10.8,36.36,9.65,11.27,4.84,23.07,11.17,35,15.09C45.48,17.16,32.21,13.16,20.08,10.52Z"/><path class="cls-4" d="M76.94,28.14a19.18,19.18,0,0,0,5.33-1.36C88.47,31.51,94.33,38.5,99.33,45c-.74-8.78-8.43-15.28-17-18.26a18.93,18.93,0,0,0,2.49-1.28c-2.58.1-5.22.09-7.89,0a168.37,168.37,0,0,1-24-3.08C60.19,25.54,68.93,29.05,76.94,28.14Z"/><path class="cls-4" d="M-2.68,12.6C6.27,18.33,18.21,23.67,29,24,19.21,18.14,8,16.53-2.68,12.6Z"/><path class="cls-4" d="M-25.87,18C-17.79,22.56-8.71,27.81.52,29.14-7.09,23-16.42,20.31-25.87,18Z"/><path class="cls-4" d="M9.81,53.88C6.32,42.21-5.92,33.63-16.58,27.81-7.5,35.44.75,45.58,9.81,53.88Z"/><path class="cls-4" d="M-.59,22.44C6.17,29,14.5,36.44,23.64,39.19,16.83,31.76,8.27,27.31-.59,22.44Z"/><path class="cls-4" d="M51.52,44.71c-9.61-5.41-19.26-10.82-27.69-18C30.3,35.18,40.18,45.18,51.52,44.71Z"/><path class="cls-4" d="M11.49,41c5,7.86,10.89,17.54,17.55,24.19C26.24,55.35,19.06,47.68,11.49,41Z"/><path class="cls-4" d="M-.45,52.59C4,60.31,8.93,70.29,8,79.52,15.1,70.87,6.49,59.68-.45,52.59Z"/><path class="cls-4" d="M-1.65,97.05c6-8.83,3.62-21.48-.6-31.22C-.46,75.58-1.41,86.72-1.65,97.05Z"/><path class="cls-4" d="M20.12,89C25.06,78.32,18.8,66.1,14,55.25,16.15,65.77,19.44,78,20.12,89Z"/><path class="cls-4" d="M24.82,39.68c7,6.1,13.46,15.24,20,21.86C42.45,51.37,34,44.18,24.82,39.68Z"/><path class="cls-4" d="M36.18,89.86c5.23-9.14,4.93-23.7-4.49-29.93C38.77,67.36,35.85,79.83,36.18,89.86Z"/><path class="cls-4" d="M44,43.65c5.81,7.54,10.33,17.44,14.6,26.42C59.65,59.76,52.11,50.12,44,43.65Z"/><path class="cls-4" d="M52.79,38.6c7.36,6,13.39,15.51,16.75,24.47C71.35,51.76,62.35,43.37,52.79,38.6Z"/><path class="cls-4" d="M62.06,62.48c1,9.52-1.61,20.63-3.41,30C65.9,84.27,65.59,72.43,62.06,62.48Z"/><path class="cls-4" d="M44.87,93.8c6.4-8.71,4.38-21.18-.34-30.91C46.7,72.54,45.64,83.54,44.87,93.8Z"/><path class="cls-4" d="M76.94,83.55c2.5-6.22,2.07-13.18,0-19.66A44.75,44.75,0,0,0,74.07,57c2.39,9.47,1,20.76.82,30.47A22.32,22.32,0,0,0,76.94,83.55Z"/><path class="cls-4" d="M138.81,1.8c7-1,15.09,1.69,20.86,6C156.05-.59,146.77-2.39,138.81,1.8Z"/><path class="cls-4" d="M117.25,5.27a130.72,130.72,0,0,1,21.42-3.2C132-1.67,123.65.07,117.25,5.27Z"/><path class="cls-4" d="M126.16,13.4A59.85,59.85,0,0,1,147.39,18C142.81,11.46,134,10.27,126.16,13.4Z"/><path class="cls-4" d="M146.93,9c5,6.29,6.93,15.3,6.61,23.73C159.11,24.92,154.79,14.48,146.93,9Z"/><path class="cls-4" d="M142.87,24.59c.91,5.81,3,13.4,4.51,19.13C149.81,36.92,148,30.09,142.87,24.59Z"/><path class="cls-4" d="M149.22,66.92c.83-9.15,1.74-18.28,5.61-26.72C148.66,47.05,144.82,58.34,149.22,66.92Z"/><path class="cls-4" d="M157.84,49.3c-4.72,10-6.76,23.56,1.78,32.29C156.73,71.48,155.37,60,157.84,49.3Z"/><path class="cls-4" d="M113.58,20.41c7.6.89,15.69,5.5,21.68,10.29C132,21.9,122.59,18.6,113.58,20.41Z"/><path class="cls-4" d="M135.86,23.72c3.25,7.61,3.18,17.13,1.56,25.65C144.14,42.41,142,31.24,135.86,23.72Z"/><path class="cls-4" d="M124.74,31.57c.89,6.68-.49,14.67-1.91,21.84A18.43,18.43,0,0,0,124.74,31.57Z"/><path class="cls-4" d="M132.68,43.24c-1.55,7.63-4.72,16.7-6.2,24.37C132.48,61,134,52.07,132.68,43.24Z"/><path class="cls-4" d="M138.59,79.11c.2-11.25.41-22.82,5.54-33.07-6.76,8.1-11,21.76-6.21,31.76-2.34,10.61,2.16,23.84,13.17,28.14-6.19-7.63-12.3-16.8-12.67-27.15C138.48,78.89,138.53,79,138.59,79.11Z"/><path class="cls-4" d="M92.92,57.18C89.16,65.93,86.54,76.24,81.6,85,88.46,78,94.16,67.65,92.92,57.18Z"/><path class="cls-4" d="M76.94,32.86a31.15,31.15,0,0,0-3.36-1.44,27.51,27.51,0,0,1,3.36,2.42c6.72,5.6,11,14.23,12.88,22.64C92.51,45.92,86,37.34,76.94,32.86Z"/><path class="cls-4" d="M97,21c5.22,7.74,9.2,17.66,13.19,26.59C111.55,37.54,104.6,27.74,97,21Z"/><path class="cls-4" d="M115.05,33.45c4.47,9.61,2.73,21.39-.19,31.33C123.69,56.37,122,42.67,115.05,33.45Z"/><path class="cls-4" d="M100.11,43.42c1.55,9.14-1.14,19.19-4.67,28.13C104,65.43,104.26,53,100.11,43.42Z"/><path class="cls-4" d="M110.47,52.39a74.77,74.77,0,0,1-8.76,20C108.61,68.6,112.07,60.56,110.47,52.39Z"/><path class="cls-4" d="M134.51,92.84c-7.15-8-13.43-17.46-13.42-28.54C118.61,74.94,123.18,89.49,134.51,92.84Z"/><path class="cls-4" d="M87.85,17.39c10.09-.42,20.45,3.59,29.89,8C111.58,16.11,98.58,14.5,87.85,17.39Z"/><path class="cls-4" d="M117.89-1.5c-9.32-6.2-22.06-3-31.21,3.43A59.29,59.29,0,0,0,76.94,3.5c-7.51,1.72-15.13,4.05-23,3,7,2.5,15.13,2.25,23,.58a83.63,83.63,0,0,0,15.31-5,29,29,0,0,0-5.43-.17C96.23-1.93,107.4-2,117.89-1.5Z"/><path class="cls-4" d="M98.81,9.09c8.44.46,18,3.3,26.43,6.05C119.23,7.85,108.11,7,98.81,9.09Z"/><path class="cls-4" d="M96,7.66c-6.27,2.37-12.56,5.86-19,8.89-2.74,1.29-5.5,2.5-8.31,3.5a52.53,52.53,0,0,0,8.31-1.37C84.12,16.89,91.13,13.43,96,7.66Z"/><path class="cls-4" d="M76.94,45.93a34.27,34.27,0,0,0-8.55-7.81,51,51,0,0,0,7.51-.85c-12.57-4.23-28.82-1-39.62-10.6C42.38,35.36,56,38.49,67.66,38.14a72.48,72.48,0,0,1,9.28,13.28c1.61,2.86,3.1,5.77,4.45,8.59C81.94,54.9,80.08,50.07,76.94,45.93Z"/></g></g><path class="cls-1" d="M22.48,28.49a13,13,0,0,1-7.65-2.13,6.18,6.18,0,0,1-3-5.37,3.78,3.78,0,0,1,1.36-2.88A5,5,0,0,1,16.55,17a4.63,4.63,0,0,1,3.21,1.15,3.59,3.59,0,0,1,1,3.28A8.65,8.65,0,0,0,21,25.12c.3.85.74,1.27,1.32,1.27.93,0,1.4-.91,1.4-2.75V5.93a1.71,1.71,0,0,0-.94-1.29,5.8,5.8,0,0,1-.7-.42.83.83,0,0,1-.31-.63A1,1,0,0,1,22,3a.65.65,0,0,1,.52-.26H33.29a.66.66,0,0,1,.54.28.92.92,0,0,1,.22.59.7.7,0,0,1-.31.63l-.59.38a1.72,1.72,0,0,0-.91,1.54v15.2a6,6,0,0,1-2.54,5.23A12.32,12.32,0,0,1,22.48,28.49Zm12.86-8.65a7.47,7.47,0,0,1,2.74-6.38,11.43,11.43,0,0,1,7.34-2.27,10.57,10.57,0,0,1,5.81,1.48,5.5,5.5,0,0,1,2.66,3.68,3.35,3.35,0,0,1-1.18,3.21,8.45,8.45,0,0,1-3.58,1.92,16.16,16.16,0,0,1-4.2.56,10.38,10.38,0,0,1-1.6-.11q1.37,3.53,4.57,3.59a4.63,4.63,0,0,0,2.84-.87,4.08,4.08,0,0,0,1.52-2.51c.16-.77.58-1.11,1.25-1.05s.91.55.77,1.36q-1.29,6-9.35,6A10.11,10.11,0,0,1,38,26.24,8.41,8.41,0,0,1,35.34,19.84Zm9.11-6.62c-.8.16-1.36.91-1.7,2.24a10.57,10.57,0,0,0,.09,4.73,7.37,7.37,0,0,0,2.86-.28,2.25,2.25,0,0,0,1.67-1.6,4.59,4.59,0,0,0-.43-3.68A2.26,2.26,0,0,0,44.45,13.22Zm11.71,1.11a.75.75,0,0,1-.7-.71.8.8,0,0,1,.46-.93,11.64,11.64,0,0,1,5.89-1.46,5.28,5.28,0,0,1,2.65.52,2.57,2.57,0,0,1,1,2.2,5.48,5.48,0,0,1,4.26-2.76,8.44,8.44,0,0,1,5.72,1A4.19,4.19,0,0,1,77.6,15.9a3.19,3.19,0,0,1-1.16,2.51,4.29,4.29,0,0,1-3.26.73,3.12,3.12,0,0,1-2-.78,2.32,2.32,0,0,1-.72-1.5,15.76,15.76,0,0,1,0-1.67,2.9,2.9,0,0,0-.25-1.36,1,1,0,0,0-1-.51,2.15,2.15,0,0,0-1.78,1,5.77,5.77,0,0,0-.94,2.16,10.52,10.52,0,0,0-.25,2.3v5.75a1.78,1.78,0,0,0,.91,1.54l.59.38a.75.75,0,0,1,.28.91.72.72,0,0,1-.73.59h-10a.74.74,0,0,1-.72-.59.73.73,0,0,1,.26-.91l.7-.42a1.54,1.54,0,0,0,.94-1.5V14.92q0-.69-.84-.69a6.12,6.12,0,0,0-.73,0C56.57,14.31,56.32,14.33,56.16,14.33Zm22.56,0a.75.75,0,0,1-.7-.71.8.8,0,0,1,.45-.93A13,13,0,0,1,85,11.23a5.2,5.2,0,0,1,3,.61c.56.4.84,1.31.84,2.7a7.37,7.37,0,0,1,2.58-2.41,7.26,7.26,0,0,1,3.42-.94q3.31,0,4.77,1.22A5.19,5.19,0,0,1,101,16.56v8a1.74,1.74,0,0,0,.9,1.54s.25.15.6.38a.76.76,0,0,1,.28.91A.73.73,0,0,1,102,28H96.29q-3.06,0-3.14-3.45l0-5.65V17.35c0-.25,0-.56-.07-.94a2.38,2.38,0,0,0-.23-.86,1.61,1.61,0,0,0-.45-.5,1.16,1.16,0,0,0-.75-.23,2.49,2.49,0,0,0-1.94,1.24,5.34,5.34,0,0,0-1,2.63v5.89a1.78,1.78,0,0,0,.91,1.54l.59.38a.76.76,0,0,1,.28.91.72.72,0,0,1-.73.59h-10a.86.86,0,0,1-.45-1.5l.7-.42a1.54,1.54,0,0,0,.94-1.5V14.92q0-.69-.84-.69a6.12,6.12,0,0,0-.73,0C79.12,14.31,78.88,14.33,78.72,14.33Zm25.42.35c-.38,0-.6-.26-.67-.7a.82.82,0,0,1,.42-.94,13,13,0,0,1,6.56-1.46,5.1,5.1,0,0,1,3,.66c.56.44.84,1.39.84,2.86v9.48a1.74,1.74,0,0,0,.9,1.54c.12.07.32.19.6.38a.73.73,0,0,1,.26.91.74.74,0,0,1-.72.59H105.25a.71.71,0,0,1-.7-.59.76.76,0,0,1,.28-.91,6.72,6.72,0,0,1,.7-.42,1.54,1.54,0,0,0,.94-1.5V15.27c0-.46-.28-.7-.83-.7a7.44,7.44,0,0,0-.77.06ZM117.8,5a.75.75,0,0,1-.69-.71.8.8,0,0,1,.45-.93,10.13,10.13,0,0,1,3-1.06,16.48,16.48,0,0,1,3.57-.4,5.19,5.19,0,0,1,3,.64c.55.43.82,1.39.82,2.88v9.13a7.59,7.59,0,0,1,2.58-2.42,7.22,7.22,0,0,1,3.45-1q3.32,0,4.76,1.22c1,.84,1.45,2.22,1.45,4.15v7.67h0v.35a1.73,1.73,0,0,0,.91,1.54l.59.38a.73.73,0,0,1,.26.91.72.72,0,0,1-.71.59h-5.75a2.83,2.83,0,0,1-2.45-.94,4.72,4.72,0,0,1-.73-2.51l0-5.65v-.49c0-.6,0-1.06,0-1.36a7.28,7.28,0,0,0-.14-1.08,1.42,1.42,0,0,0-.45-.89,1.38,1.38,0,0,0-.86-.26,2.54,2.54,0,0,0-2,1.38A5.65,5.65,0,0,0,128,19v5.54a1.78,1.78,0,0,0,.91,1.54l.59.38a.76.76,0,0,1,.28.91A.72.72,0,0,1,129,28H118.92a.85.85,0,0,1-.45-1.5l.69-.42a1.54,1.54,0,0,0,.94-1.5v-19c0-.46-.27-.69-.83-.69a6,6,0,0,0-.73,0C118.21,5,118,5,117.8,5Z"/><path class="cls-5" d="M110.75,0h0a.21.21,0,0,0-.25.1,6.8,6.8,0,0,1-6.07,3.39.21.21,0,0,0-.21.16h0a.21.21,0,0,0,.1.25A6.8,6.8,0,0,1,107.71,10a.22.22,0,0,0,.16.21h0a.21.21,0,0,0,.25-.1,6.8,6.8,0,0,1,6.07-3.39.24.24,0,0,0,.21-.16h0a.22.22,0,0,0-.1-.25A6.8,6.8,0,0,1,110.91.22.23.23,0,0,0,110.75,0Z"/><path class="cls-5" d="M149,29.17h0a.2.2,0,0,0-.24.1,6.82,6.82,0,0,1-6.07,3.39.22.22,0,0,0-.22.16h0a.23.23,0,0,0,.1.24,6.83,6.83,0,0,1,3.4,6.07.22.22,0,0,0,.15.22h0a.24.24,0,0,0,.25-.1,6.85,6.85,0,0,1,6.07-3.4.2.2,0,0,0,.21-.15h0a.22.22,0,0,0-.09-.25,6.8,6.8,0,0,1-3.4-6.07A.21.21,0,0,0,149,29.17Z"/><path class="cls-1" d="M.75,57.09a.71.71,0,0,1-.7-.6.74.74,0,0,1,.28-.9,5.09,5.09,0,0,1,.7-.42A1.55,1.55,0,0,0,2,53.67V34.42A1.65,1.65,0,0,0,1,32.92a6.58,6.58,0,0,1-.7-.41.7.7,0,0,1-.28-.88A.71.71,0,0,1,.75,31l10.32,0q6.9,0,10.7,1.48t3.8,4.65q0,4-6.73,5.51A15.1,15.1,0,0,1,25.43,45a5.3,5.3,0,0,1,2.23,4.51q0,3.76-4.16,5.7t-11.56,1.9Zm9.76-22.28v5.92a1,1,0,0,0,1,1.05q5.47,0,5.48-4.32a4,4,0,0,0-1.31-3.28,6.77,6.77,0,0,0-4.17-1.08,1,1,0,0,0-.76.29,1.09,1.09,0,0,0-.28.79Zm0,19.14a1,1,0,0,0,.3.77,1,1,0,0,0,.74.27q3.91,0,5.74-1.36a4.89,4.89,0,0,0,1.83-4.21,4.87,4.87,0,0,0-1.85-4.19c-1.23-.9-3.14-1.36-5.72-1.36a1,1,0,0,0-.74.3,1.06,1.06,0,0,0-.3.78Zm19-5a7.44,7.44,0,0,1,2.73-6.38,11.43,11.43,0,0,1,7.34-2.27,10.57,10.57,0,0,1,5.81,1.48,5.5,5.5,0,0,1,2.66,3.68,3.36,3.36,0,0,1-1.18,3.21,8.56,8.56,0,0,1-3.58,1.92,16.14,16.14,0,0,1-4.2.55,10.51,10.51,0,0,1-1.6-.1c.91,2.35,2.43,3.54,4.57,3.59a4.63,4.63,0,0,0,2.84-.87,4,4,0,0,0,1.51-2.51q.25-1.15,1.26-1c.65.1.91.55.77,1.36q-1.29,6-9.35,6A10.06,10.06,0,0,1,32.2,55.4,8.36,8.36,0,0,1,29.55,49Zm9.1-6.63c-.8.17-1.36.92-1.7,2.25A10.57,10.57,0,0,0,37,49.35a7.37,7.37,0,0,0,2.86-.28,2.26,2.26,0,0,0,1.67-1.61,4.56,4.56,0,0,0-.43-3.68A2.26,2.26,0,0,0,38.65,42.37Zm11.71,1.12a.76.76,0,0,1-.7-.72.79.79,0,0,1,.46-.92A11.54,11.54,0,0,1,56,40.39a5.28,5.28,0,0,1,2.65.52,2.57,2.57,0,0,1,1,2.2,5.45,5.45,0,0,1,4.26-2.76,8.39,8.39,0,0,1,5.72,1,4.18,4.18,0,0,1,2.19,3.68,3.19,3.19,0,0,1-1.17,2.51,4.25,4.25,0,0,1-3.25.73,3.2,3.2,0,0,1-2-.78,2.35,2.35,0,0,1-.71-1.5,15.87,15.87,0,0,1,0-1.68A2.93,2.93,0,0,0,64.39,43a1,1,0,0,0-1-.5,2.16,2.16,0,0,0-1.78,1,5.88,5.88,0,0,0-.94,2.17A10.52,10.52,0,0,0,60.4,48v5.75a1.75,1.75,0,0,0,.91,1.53l.59.39a.74.74,0,0,1,.28.9.72.72,0,0,1-.73.6h-10a.73.73,0,0,1-.72-.6.72.72,0,0,1,.26-.9,7.36,7.36,0,0,1,.7-.42,1.54,1.54,0,0,0,.94-1.5V44.08c0-.46-.28-.7-.84-.7a6.68,6.68,0,0,0-.73.06C50.77,43.47,50.52,43.49,50.36,43.49Zm21.86-9.31a.76.76,0,0,1-.7-.72.81.81,0,0,1,.46-.92,9.76,9.76,0,0,1,3-1.06,17.27,17.27,0,0,1,3.68-.4,5.43,5.43,0,0,1,3.08.62c.55.42.82,1.39.82,2.9v6.48a12.26,12.26,0,0,1,2.93-.66A8.18,8.18,0,0,1,92,42.51,8.57,8.57,0,0,1,94.47,49a8.49,8.49,0,0,1-2.32,6.41,9,9,0,0,1-6.5,2.23h-.18a.49.49,0,0,0-.14,0,7.48,7.48,0,0,1-3.22-1,3.86,3.86,0,0,0-2.43-.69,15.48,15.48,0,0,0-1.71.47A17.45,17.45,0,0,1,75.9,57a13.41,13.41,0,0,1-2.56.21.73.73,0,0,1-.72-.6.72.72,0,0,1,.26-.9c.14-.1.38-.24.7-.42a1.54,1.54,0,0,0,.94-1.5v-19c0-.46-.28-.7-.83-.7a6.64,6.64,0,0,0-.74.06C72.63,34.16,72.38,34.18,72.22,34.18Zm11.23,8.51a1.4,1.4,0,0,0-1.24,1.48,30.4,30.4,0,0,0,.47,5.14,19.68,19.68,0,0,0,1.14,5.18c.43.92,1,1.31,1.83,1.17S86.84,55,86.92,54a23.79,23.79,0,0,0-.58-5.29,22.86,22.86,0,0,0-1.18-5A1.47,1.47,0,0,0,83.45,42.69ZM124,54.26c-3.41-1.18-5.12-3.37-5.12-6.55a6.19,6.19,0,0,1,2.82-5.44,13.42,13.42,0,0,1,7.64-1.92,10.75,10.75,0,0,0,4.18-1.22,11.84,11.84,0,0,0,3-2.48,1.28,1.28,0,0,1,1-.52,1.65,1.65,0,0,1,1.29.75,3.36,3.36,0,0,1,.72,1.69,3.06,3.06,0,0,1-.33,1.82,2.25,2.25,0,0,1-1.77.8,11.13,11.13,0,0,1-2.45,0c3.2,1.14,4.81,3.31,4.81,6.52A6.13,6.13,0,0,1,137,53.18,13.79,13.79,0,0,1,129.37,55c-.44,0-1,0-1.78-.07a4.43,4.43,0,0,0-1.81.78c-.47.37-.61.75-.42,1.17s.5.42,1.15.42a30,30,0,0,0,3.7-.54,27.55,27.55,0,0,1,4.63-.54q4.29,0,5.13,3a4.68,4.68,0,0,1-1.24,4.83q-2,2.15-6.71,2.15c-.75,0-1.21-.26-1.4-.77s0-.64.39-.73a.29.29,0,0,1,.17,0c.61,0,1.19-.07,1.75-.14a16.41,16.41,0,0,0,1.77-.33,3.13,3.13,0,0,0,1.43-.68,1,1,0,0,0,.28-1.08c-.11-.37-.47-.56-1.08-.56a34.59,34.59,0,0,0-4.44.93,27.45,27.45,0,0,1-6.51.89,5.74,5.74,0,0,1-3.64-1.24,4,4,0,0,1-1.41-3.12Q119.26,55.73,124,54.26Zm4.12-12.2a1.48,1.48,0,0,0-1.4,1.41,16.26,16.26,0,0,0,.6,4.48,17.52,17.52,0,0,0,1.36,4.46,1.77,1.77,0,0,0,1.88,1A1.47,1.47,0,0,0,132,51.93a17.33,17.33,0,0,0-.61-4.5A18.63,18.63,0,0,0,130,43,1.74,1.74,0,0,0,128.15,42.06Zm13.73,1.78c-.37,0-.59-.26-.66-.7a.81.81,0,0,1,.42-.94,13,13,0,0,1,6.56-1.47,5.09,5.09,0,0,1,3,.67c.56.44.84,1.39.84,2.86v9.48a1.72,1.72,0,0,0,.9,1.53l.6.39a.86.86,0,0,1-.46,1.5H143a.71.71,0,0,1-.7-.6.75.75,0,0,1,.28-.9,6.72,6.72,0,0,1,.7-.42,1.54,1.54,0,0,0,.94-1.5V44.43c0-.46-.28-.7-.84-.7-.16,0-.41,0-.76.05S142,43.84,141.88,43.84ZM111.38,37l-.33-.16L107,34.71l-4.1,2.13-.33.16c-.83.39-5.25,2.71-5.21,7.82v12.1a.72.72,0,0,0,.72.72h4.83V52.93A3.44,3.44,0,0,1,105,50l.39-.2L107,49l1.59.82A3.42,3.42,0,0,0,109,50,3.45,3.45,0,0,1,111,52.9v4.74h4.83a.73.73,0,0,0,.73-.72V44.82C116.64,39.71,112.21,37.39,111.38,37Zm-.59,8.29a3.84,3.84,0,1,1-5-5.56.25.25,0,0,1,.34.32,3.51,3.51,0,0,0-.27,2.07,3.6,3.6,0,0,0,2.78,2.9,3.52,3.52,0,0,0,1.86-.1A.25.25,0,0,1,110.79,45.29Z"/><path class="cls-5" d="M116.23,57.64h-.45c0-.5.56-.71,1-.9s.76-.29.76-.48-.41-.35-.76-.48-1-.4-1-.91.56-.71,1-.9.76-.29.76-.48-.41-.35-.76-.49-1-.4-1-.9.56-.72,1-.9.76-.3.76-.49-.41-.34-.76-.48-1-.4-1-.91.56-.71,1-.9.76-.29.76-.49-.41-.34-.76-.48-1-.41-1-.91.56-.72,1-.9.75-.3.76-.49-.61-.38-.88-.49c-.53-.21-1-.41-1.15-.77s.15-.77.46-1.26c.18-.29.52-.83.44-1s-.7-.06-1,0c-.6.06-1.17.1-1.43-.2s-.1-.83,0-1.4c.08-.32.24-.92.13-1s-.7.08-1,.17c-.58.17-1.12.34-1.42.09s-.26-.84-.19-1.44c0-.32.1-.92,0-1s-.71.14-1,.29c-.55.24-1,.45-1.34.24s-.37-.89-.37-1.52a2.21,2.21,0,0,0-.08-.89c-.3-.18-.44-.06-.77.3a1.42,1.42,0,0,1-1,.6,1.38,1.38,0,0,1-1-.6c-.34-.36-.49-.47-.79-.29a2.6,2.6,0,0,0-.07.88c0,.63,0,1.28-.36,1.52s-.79,0-1.35-.24c-.33-.15-.9-.4-1-.29s0,.67,0,1c.06.61.13,1.18-.19,1.44s-.84.09-1.42-.08c-.31-.1-.9-.28-1-.17s.05.7.13,1c.15.57.29,1.11,0,1.41s-.83.25-1.43.2c-.3,0-.92-.08-1,0s.25.67.43,1c.32.49.59.92.47,1.26s-.63.56-1.16.77c-.26.11-.87.36-.87.49s.4.35.76.48,1,.4,1,.9-.55.72-1,.91-.76.29-.76.48.4.35.76.48,1,.4,1,.91-.55.71-1,.9-.76.29-.76.48.4.35.76.49,1,.4,1,.9-.55.72-1,.91-.76.29-.76.48.4.35.76.48,1,.41,1,.91-.55.72-1,.91-.76.29-.76.48.4.35.76.49,1,.4,1,.9h-.45c0-.19-.4-.34-.76-.48s-1-.41-1-.91.55-.72,1-.9.76-.3.76-.49-.4-.35-.76-.49-1-.4-1-.9.55-.72,1-.9.76-.3.76-.49-.4-.34-.76-.48-1-.4-1-.91.55-.71,1-.9.76-.29.76-.48-.4-.35-.76-.49-1-.4-1-.9.55-.72,1-.9.76-.3.76-.49-.4-.34-.76-.48-1-.4-1-.9.55-.66,1.15-.9c.34-.14.84-.35.9-.51s-.24-.6-.42-.87c-.35-.55-.67-1.07-.43-1.44s.79-.3,1.41-.25c.37,0,.94.08,1.05,0s-.05-.66-.14-1c-.16-.61-.31-1.18,0-1.47s.86-.12,1.45.06c.33.1.89.27,1,.17s.06-.69,0-1c-.06-.6-.12-1.17.2-1.41s.9,0,1.48.24c.29.13.82.36.92.29s.16-.73.16-1.14c0-.59,0-1.1.29-1.28.65-.39,1,.06,1.35.38s.41.44.68.44.46-.21.67-.44.7-.77,1.35-.38c.31.18.3.69.29,1.28,0,.41,0,1,.16,1.14s.64-.16.92-.28c.59-.26,1.15-.5,1.49-.24s.26.8.2,1.4c0,.36-.1,1,0,1s.68-.07,1-.17c.59-.18,1.15-.35,1.45-.06s.15.86,0,1.46c-.08.33-.23.89-.13,1s.69.07,1.05,0c.61,0,1.19-.1,1.41.25s-.09.89-.44,1.44c-.17.28-.46.74-.42.87s.57.37.9.51c.6.24,1.16.46,1.16.9s-.56.72-1.05.91-.76.29-.76.48.4.35.76.49,1.05.4,1.05.9-.56.72-1.05.91-.76.29-.76.48.4.35.76.49,1.05.4,1.05.9-.56.72-1.05.91-.76.29-.76.48.4.35.76.48,1.05.41,1.05.91-.56.71-1.05.9-.76.29-.76.48.4.35.76.49,1.05.4,1.05.9-.56.72-1.05.9S116.23,57.45,116.23,57.64Z"/></svg>