<svg id="Layer_1" data-name="Layer 1" xmlns="http://www.w3.org/2000/svg" xmlns:xlink="http://www.w3.org/1999/xlink" viewBox="0 0 36 36"><defs><style>.cls-1{fill:#fff;}.cls-2{clip-path:url(#clip-path);}.cls-3{opacity:0.56;}.cls-4{fill:#e7f2ee;}.cls-5{fill:#1f3d7d;}</style><clipPath id="clip-path"><rect id="SVGID" class="cls-1" x="-381.87" y="127.12" width="412.72" height="787.29"/></clipPath></defs><title>menu</title><rect id="SVGID-2" data-name="SVGID" class="cls-1" x="-381.87" y="127.12" width="412.72" height="787.29"/><g class="cls-2"><g class="cls-3"><path class="cls-4" d="M2.06,31.45c-1.54,5.36-4.29,11.63-5.86,17C.88,44.11,2.24,37.75,2.06,31.45Z"/><path class="cls-4" d="M18.2,25.94c2.75,4.8,4.58,11,5.9,16.65C26.21,36.72,22.82,30.25,18.2,25.94Z"/><path class="cls-4" d="M6.91,23.48a104.32,104.32,0,0,1,4.84,12.24A88.89,88.89,0,0,1,7.71,50c3.94-3,5.26-8.16,4.32-13.33.12.37.23.73.34,1.09C13.72,32.53,11.26,27.2,6.91,23.48Z"/><path class="cls-4" d="M12.46,16.12H10.91c1.95,4.42,3,9.56,5.2,13.89A23,23,0,0,0,12.46,16.12Z"/><path class="cls-4" d="M22.14,17.36A110.89,110.89,0,0,0,29,32.05C28.91,26.41,26.2,21.37,22.14,17.36Z"/><path class="cls-4" d="M34.06,22.06c2.45,7.39,4,15.93,7.13,23.42.89-6.26-1.59-13-4.66-18.93a25,25,0,0,0-2.1-10.43h-2.1c.74,2.35,1.49,4.71,2.32,7Z"/><path class="cls-4" d="M23.88,16.12h-.74c.27.48.55.94.84,1.39C24,17,23.93,16.58,23.88,16.12Z"/><path class="cls-4" d="M5.67,16.12H3.74a12.38,12.38,0,0,0,3,6.73C6.35,20.62,6,18.37,5.67,16.12Z"/></g></g><rect class="cls-5" x="4" y="8.91" width="28" height="3.53" rx="1.76"/><rect class="cls-5" x="4" y="16.24" width="28" height="3.53" rx="1.76"/><rect class="cls-5" x="4" y="23.56" width="28" height="3.53" rx="1.76"/></svg>